<?xml version="1.0" encoding="UTF-8"?>
<svg version="1.1" xmlns="http://www.w3.org/2000/svg" viewBox="27 339 775 169">
<path d="M0 0 C0.495 0.495 0.495 0.495 1 1 C2.99838311 1.22932265 4.9968551 1.45794726 6.99609375 1.6796875 C9.28544354 2.04562645 11.00020745 2.84627353 13 4 C13.66 4 14.32 4 15 4 C15.495 4.99 15.495 4.99 16 6 C18.02463255 6.65213292 18.02463255 6.65213292 20 7 C20 7.66 20 8.32 20 9 C20.99 9.33 21.98 9.66 23 10 C23 10.66 23 11.32 23 12 C23.598125 12.268125 24.19625 12.53625 24.8125 12.8125 C27.01819033 14.00987475 28.43583187 15.04478984 30 17 C30 17.99 30 18.98 30 20 C30.66 20 31.32 20 32 20 C32.495 21.485 32.495 21.485 33 23 C33.66 23.33 34.32 23.66 35 24 C35.59355614 26.64860427 35.74209269 29.29197322 36 32 C36.33 32 36.66 32 37 32 C37 35.3 37 38.6 37 42 C36.34 42 35.68 42 35 42 C35 45.3 35 48.6 35 52 C34.34 52 33.68 52 33 52 C32.67 53.32 32.34 54.64 32 56 C31.34 56 30.68 56 30 56 C30 57.32 30 58.64 30 60 C28.70264493 61.04625409 27.36733028 62.04701223 26 63 C25.505 64.485 25.505 64.485 25 66 C23.515 66.495 23.515 66.495 22 67 C20.79117904 69.00016466 20.79117904 69.00016466 20 71 C18.68 71 17.36 71 16 71 C15.505 72.485 15.505 72.485 15 74 C13 76 13 76 10.9375 76.5 C10.298125 76.665 9.65875 76.83 9 77 C8.67 77.66 8.34 78.32 8 79 C6.35 79 4.7 79 3 79 C3 79.66 3 80.32 3 81 C1.35 81 -0.3 81 -2 81 C-2 81.66 -2 82.32 -2 83 C-5.465 83.495 -5.465 83.495 -9 84 C-9 84.66 -9 85.32 -9 86 C-10.6396875 86.2165625 -10.6396875 86.2165625 -12.3125 86.4375 C-15.93122987 86.88288104 -15.93122987 86.88288104 -19 88 C-19 88.66 -19 89.32 -19 90 C-16.66785852 91.20628008 -14.50357861 92.1654738 -12 93 C-12 93.99 -12 94.98 -12 96 C-11.01 96 -10.02 96 -9 96 C-9 96.66 -9 97.32 -9 98 C-8.34 98 -7.68 98 -7 98 C-7 98.66 -7 99.32 -7 100 C-6.13375 100.185625 -6.13375 100.185625 -5.25 100.375 C-2.97664233 101.00648824 -1.0746471 101.88858191 1 103 C1 103.66 1 104.32 1 105 C1.66 105 2.32 105 3 105 C3 105.66 3 106.32 3 107 C4.65 107.33 6.3 107.66 8 108 C8 108.66 8 109.32 8 110 C9.65 110 11.3 110 13 110 C13 110.66 13 111.32 13 112 C14.65 112.33 16.3 112.66 18 113 C18 113.66 18 114.32 18 115 C20.31 115 22.62 115 25 115 C25 115.33 25 115.66 25 116 C28.42573937 116.77528479 31.57239245 117.11918778 35.08203125 117.09765625 C36.01337891 117.09443359 36.94472656 117.09121094 37.90429688 117.08789062 C38.86400391 117.07951172 39.82371094 117.07113281 40.8125 117.0625 C41.79154297 117.05798828 42.77058594 117.05347656 43.77929688 117.04882812 C46.18626111 117.03708684 48.59309857 117.02066419 51 117 C51 116.34 51 115.68 51 115 C56.75 112 56.75 112 59 112 C59 111.34 59 110.68 59 110 C59.66 110 60.32 110 61 110 C61 109.01 61 108.02 61 107 C61.66 106.67 62.32 106.34 63 106 C63.69937532 104.68352881 64.36729133 103.34977849 65 102 C65.33 101.67 65.66 101.34 66 101 C64.68 101 63.36 101 62 101 C60.25 99.5625 60.25 99.5625 59 97 C58.75590331 93.98254943 58.82577085 91.01997196 59 88 C60.43554025 87.49440092 61.8735202 86.9957251 63.3125 86.5 C64.11300781 86.2215625 64.91351562 85.943125 65.73828125 85.65625 C68 85 68 85 71 85 C71 84.34 71 83.68 71 83 C73.97 82.505 73.97 82.505 77 82 C77.66 80.02 78.32 78.04 79 76 C79.66 76 80.32 76 81 76 C81 74.02 81 72.04 81 70 C81.66 69.67 82.32 69.34 83 69 C83.65213292 66.97536745 83.65213292 66.97536745 84 65 C84.66 65 85.32 65 86 65 C85.95875 64.05125 85.9175 63.1025 85.875 62.125 C86 59 86 59 88 57 C88.33 56.01 88.66 55.02 89 54 C89.66 54 90.32 54 91 54 C90.95875 53.0925 90.9175 52.185 90.875 51.25 C91.04007463 46.95805953 91.99801155 45.00198845 95 42 C95.64767793 39.42938689 95.64767793 39.42938689 96 37 C96.66 37 97.32 37 98 37 C98 35.02 98 33.04 98 31 C98.66 31 99.32 31 100 31 C100.33 29.02 100.66 27.04 101 25 C101.66 25 102.32 25 103 25 C103 22.36 103 19.72 103 17 C103.66 17 104.32 17 105 17 C105.33 15.68 105.66 14.36 106 13 C106.66 13 107.32 13 108 13 C108 10.69 108 8.38 108 6 C108.66 5.67 109.32 5.34 110 5 C110.33 4.01 110.66 3.02 111 2 C114.3 2 117.6 2 121 2 C121 2.66 121 3.32 121 4 C121.66 4 122.32 4 123 4 C123.12375 4.639375 123.2475 5.27875 123.375 5.9375 C123.58125 6.618125 123.7875 7.29875 124 8 C124.99 8.495 124.99 8.495 126 9 C126.33 16.26 126.66 23.52 127 31 C127.33 31 127.66 31 128 31 C128.33 39.25 128.66 47.5 129 56 C129.66 56 130.32 56 131 56 C131.33 60.95 131.66 65.9 132 71 C132.33 71 132.66 71 133 71 C133 73.31 133 75.62 133 78 C137.95 78 142.9 78 148 78 C148 78.99 148 79.98 148 81 C148.66 81 149.32 81 150 81 C150.33 81.66 150.66 82.32 151 83 C151.33 79.7 151.66 76.4 152 73 C152.66 73 153.32 73 154 73 C154 72.34 154 71.68 154 71 C160.0546875 70.8046875 160.0546875 70.8046875 162 71 C162.66 71.66 163.32 72.32 164 73 C164.33 73 164.66 73 165 73 C165.06058594 73.71027344 165.12117187 74.42054688 165.18359375 75.15234375 C165.26738281 76.07144531 165.35117187 76.99054688 165.4375 77.9375 C165.55931641 79.31228516 165.55931641 79.31228516 165.68359375 80.71484375 C165.76044976 82.96159732 165.76044976 82.96159732 167 84 C167.2285321 85.9230873 167.39518857 87.85360228 167.53515625 89.78515625 C167.62216797 90.95498047 167.70917969 92.12480469 167.79882812 93.33007812 C167.88583984 94.56177734 167.97285156 95.79347656 168.0625 97.0625 C168.19881836 98.91584961 168.19881836 98.91584961 168.33789062 100.80664062 C168.56267598 103.87081994 168.7831856 106.93524802 169 110 C169.06058594 108.79601562 169.12117187 107.59203125 169.18359375 106.3515625 C169.26799732 104.77602923 169.35264541 103.20050904 169.4375 101.625 C169.47681641 100.8309375 169.51613281 100.036875 169.55664062 99.21875 C169.88671875 93.2265625 169.88671875 93.2265625 171 91 C171.2322646 88.28737884 171.41936235 85.59226874 171.5625 82.875 C171.62727539 81.74384766 171.62727539 81.74384766 171.69335938 80.58984375 C171.7994832 78.72678112 171.90025001 76.86341476 172 75 C172.33 75 172.66 75 173 75 C173.04487549 74.40574219 173.08975098 73.81148438 173.13598633 73.19921875 C173.34939403 70.46504887 173.58082418 67.73268018 173.8125 65 C173.91788086 63.59814453 173.91788086 63.59814453 174.02539062 62.16796875 C174.54138863 56.26495154 175.65522977 51.44757578 178 46 C180.97 46 183.94 46 187 46 C187 46.99 187 47.98 187 49 C187.99 49.33 188.98 49.66 190 50 C190.33 53.63 190.66 57.26 191 61 C191.33 61 191.66 61 192 61 C192.04898437 61.95261719 192.09796875 62.90523438 192.1484375 63.88671875 C192.26058594 65.76810547 192.26058594 65.76810547 192.375 67.6875 C192.44460938 68.92886719 192.51421875 70.17023438 192.5859375 71.44921875 C192.82773377 74.88872072 192.82773377 74.88872072 194 77.46875 C195.34226093 80.86634797 195.45934909 84.20614169 195.625 87.8125 C195.66367187 88.50537109 195.70234375 89.19824219 195.7421875 89.91210938 C195.83573568 91.60767015 195.91892364 93.30379712 196 95 C196.66322266 93.58847656 196.66322266 93.58847656 197.33984375 92.1484375 C199.14127762 88.73207115 200.81111134 87.12592577 204 85 C204.66 85 205.32 85 206 85 C206 84.34 206 83.68 206 83 C215.57 83 225.14 83 235 83 C235 83.33 235 83.66 235 84 C235.98742187 84.13277344 236.97484375 84.26554687 237.9921875 84.40234375 C239.27351563 84.57894531 240.55484375 84.75554687 241.875 84.9375 C243.15117188 85.11152344 244.42734375 85.28554688 245.7421875 85.46484375 C249 86 249 86 251 87 C253.54615009 87.23172827 256.07396225 87.41894529 258.625 87.5625 C259.68460938 87.62727539 259.68460938 87.62727539 260.765625 87.69335938 C262.51018537 87.79944751 264.25506697 87.90022889 266 88 C266 88.33 266 88.66 266 89 C281.84 89 297.68 89 314 89 C314 88.67 314 88.34 314 88 C315.03060547 87.83564453 315.03060547 87.83564453 316.08203125 87.66796875 C316.98308594 87.50941406 317.88414062 87.35085938 318.8125 87.1875 C319.70582031 87.03667969 320.59914063 86.88585937 321.51953125 86.73046875 C324.25006198 85.9263597 325.0971072 85.02975232 327 83 C329.30988315 82.25613932 331.64315944 81.57809297 334 81 C334.12375 80.46375 334.2475 79.9275 334.375 79.375 C335.12206016 76.5361714 336.05303364 73.77776798 337 71 C337.66 71 338.32 71 339 71 C338.95875 70.05125 338.9175 69.1025 338.875 68.125 C339 65 339 65 341 63 C343.875 62.5 343.875 62.5 347 63 C349.3125 66 349.3125 66 351 69 C351.33 69 351.66 69 352 69 C352 71.31 352 73.62 352 76 C351.34 76.33 350.68 76.66 350 77 C349.34786708 79.02463255 349.34786708 79.02463255 349 81 C348.34 81 347.68 81 347 81 C347 82.65 347 84.3 347 86 C346.01 86 345.02 86 344 86 C344 86.66 344 87.32 344 88 C343.34 88 342.68 88 342 88 C342 88.99 342 89.98 342 91 C337.77777778 94 337.77777778 94 335 94 C335 94.66 335 95.32 335 96 C331.3558226 98.4294516 329.28758728 98.16179575 325 98 C325 98.99 325 99.98 325 101 C323.35 101.33 321.7 101.66 320 102 C320 102.33 320 102.66 320 103 C299.26331918 104.16095928 278.73864147 103.80190626 258 103 C258 102.67 258 102.34 258 102 C254.7 101.67 251.4 101.34 248 101 C248 100.34 248 99.68 248 99 C241.07 98.67 234.14 98.34 227 98 C227 97.67 227 97.34 227 97 C221.06 96.67 215.12 96.34 209 96 C208.67 97.32 208.34 98.64 208 100 C207.2575 101.0828125 207.2575 101.0828125 206.5 102.1875 C204.45024247 106.03079536 204.27151404 109.7025881 204 114 C203.34 114 202.68 114 202 114 C202.04125 114.94875 202.0825 115.8975 202.125 116.875 C202 120 202 120 200 122 C199.67 122.99 199.34 123.98 199 125 C195.7 125 192.4 125 189 125 C188.67 123.35 188.34 121.7 188 120 C187.67 120 187.34 120 187 120 C186.67 116.04 186.34 112.08 186 108 C185.34 108 184.68 108 184 108 C183.67 103.71 183.34 99.42 183 95 C182.67 101.6 182.34 108.2 182 115 C181.67 115 181.34 115 181 115 C180.67 120.61 180.34 126.22 180 132 C179.34 132.33 178.68 132.66 178 133 C177.67 139.93 177.34 146.86 177 154 C176.34 154 175.68 154 175 154 C175.061875 154.94875 175.12375 155.8975 175.1875 156.875 C175.125625 157.90625 175.06375 158.9375 175 160 C171.72942857 162.18038095 170.79480531 162.63246755 167 162 C164.2744492 160.32750292 163.39941955 159.7552774 162 157 C161.2816593 152.66898233 161.07063191 148.38559934 161 144 C160.67 144 160.34 144 160 144 C159.67 137.73 159.34 131.46 159 125 C158.34 125 157.68 125 157 125 C156.67 121.7 156.34 118.4 156 115 C155.67 116.65 155.34 118.3 155 120 C154.34 120 153.68 120 153 120 C153 120.99 153 121.98 153 123 C152.34 123 151.68 123 151 123 C151 123.66 151 124.32 151 125 C150.360625 125.12375 149.72125 125.2475 149.0625 125.375 C148.381875 125.58125 147.70125 125.7875 147 126 C146.67 126.66 146.34 127.32 146 128 C143.69 128 141.38 128 139 128 C138.67 127.34 138.34 126.68 138 126 C135.47266765 125.34444881 135.47266765 125.34444881 133 125 C133 123.35 133 121.7 133 120 C132.01 120 131.02 120 130 120 C127.68796073 117.68796073 127.72724909 117.06785625 127.5 113.9375 C127.335 112.638125 127.17 111.33875 127 110 C126.34 109.67 125.68 109.34 125 109 C122.62737302 105.51572262 122.79252938 102.37353123 122.875 98.25 C122.89304687 97.07953125 122.91109375 95.9090625 122.9296875 94.703125 C122.95289063 93.81109375 122.97609375 92.9190625 123 92 C122.01 92.495 122.01 92.495 121 93 C119.33434251 93.15222973 117.66343504 93.24917215 115.9921875 93.31640625 C115.00605469 93.35830078 114.01992188 93.40019531 113.00390625 93.44335938 C111.97136719 93.48267578 110.93882812 93.52199219 109.875 93.5625 C108.31458984 93.62727539 108.31458984 93.62727539 106.72265625 93.69335938 C104.14857472 93.7996288 101.57439492 93.90166583 99 94 C99 94.66 99 95.32 99 96 C94.05 96 89.1 96 84 96 C84 97.65 84 99.3 84 101 C83.34 101 82.68 101 82 101 C81.80664062 101.62648438 81.61328125 102.25296875 81.4140625 102.8984375 C81.15367187 103.71570313 80.89328125 104.53296875 80.625 105.375 C80.36976563 106.18710937 80.11453125 106.99921875 79.8515625 107.8359375 C78.77784797 110.56455148 77.0592202 111.9407798 75 114 C74.3574765 116.06874034 74.3574765 116.06874034 74 118 C73.34 118 72.68 118 72 118 C72 118.66 72 119.32 72 120 C71.02149805 121.02104551 70.02019573 122.0206121 69 123 C68.67 123.66 68.34 124.32 68 125 C65.97145057 125.19631124 63.94287613 125.39237578 61.9140625 125.5859375 C59.78858706 125.82698668 59.78858706 125.82698668 58.5 128 C57 130 57 130 55.12109375 130.4140625 C53.08089961 130.61114744 51.04045845 130.80567062 49 131 C48.34 131.66 47.68 132.32 47 133 C45.12060547 133.22705078 45.12060547 133.22705078 42.8671875 133.1953125 C41.65869141 133.18564453 41.65869141 133.18564453 40.42578125 133.17578125 C39.58402344 133.15902344 38.74226563 133.14226562 37.875 133.125 C37.02550781 133.11597656 36.17601562 133.10695313 35.30078125 133.09765625 C33.20040116 133.07405647 31.10016556 133.03818483 29 133 C28.67 132.01 28.34 131.02 28 130 C24.37 130 20.74 130 17 130 C17 129.34 17 128.68 17 128 C16.01 128 15.02 128 14 128 C13.67 127.34 13.34 126.68 13 126 C9.97065509 125.34227572 9.97065509 125.34227572 7 125 C7 124.34 7 123.68 7 123 C6.01 123 5.02 123 4 123 C3.67 122.34 3.34 121.68 3 121 C0.97536745 120.34786708 0.97536745 120.34786708 -1 120 C-1 119.34 -1 118.68 -1 118 C-2.32 118 -3.64 118 -5 118 C-5 117.01 -5 116.02 -5 115 C-6.32 115 -7.64 115 -9 115 C-11 113 -11 113 -12 111 C-12.99 111 -13.98 111 -15 111 C-15 110.01 -15 109.02 -15 108 C-15.99 108 -16.98 108 -18 108 C-18 107.34 -18 106.68 -18 106 C-19.32 106 -20.64 106 -22 106 C-22 105.01 -22 104.02 -22 103 C-22.99 103 -23.98 103 -25 103 C-25 102.34 -25 101.68 -25 101 C-26.32 100.67 -27.64 100.34 -29 100 C-29 99.34 -29 98.68 -29 98 C-29.99 98 -30.98 98 -32 98 C-32 97.34 -32 96.68 -32 96 C-32.99 96 -33.98 96 -35 96 C-35 95.01 -35 94.02 -35 93 C-35.66 93 -36.32 93 -37 93 C-37 92.34 -37 91.68 -37 91 C-37.99 91 -38.98 91 -40 91 C-40.02505615 92.11036621 -40.0501123 93.22073242 -40.07592773 94.36474609 C-40.16994915 98.47603319 -40.27018257 102.58714923 -40.37231445 106.69824219 C-40.4156833 108.47912603 -40.45735694 110.26005198 -40.49731445 112.04101562 C-40.5549699 114.59778548 -40.6186777 117.15434298 -40.68359375 119.7109375 C-40.70866249 120.90944839 -40.70866249 120.90944839 -40.73423767 122.13217163 C-40.88612829 127.77225659 -40.88612829 127.77225659 -42 130 C-43.95766281 130.08082094 -45.91626728 130.13910778 -47.875 130.1875 C-48.96554687 130.22230469 -50.05609375 130.25710938 -51.1796875 130.29296875 C-52.11039062 130.19628906 -53.04109375 130.09960938 -54 130 C-56.6873788 125.9689318 -56.52318245 122.68237677 -56.75 117.9375 C-56.80542969 117.12861328 -56.86085938 116.31972656 -56.91796875 115.48632812 C-57.13647023 111.31824696 -57.02375905 107.63954899 -56.0546875 103.57421875 C-54.24056293 95.49362121 -54.52578577 87.1179555 -54.375 78.875 C-54.33674586 77.13800284 -54.29769003 75.40102315 -54.2578125 73.6640625 C-54.16262741 69.44285295 -54.07830663 65.221555 -54 61 C-53.67 61 -53.34 61 -53 61 C-52.67 53.08 -52.34 45.16 -52 37 C-51.34 37 -50.68 37 -50 37 C-50 32.05 -50 27.1 -50 22 C-55.83333333 24.16666667 -55.83333333 24.16666667 -57 27 C-62.49295775 27.36619718 -62.49295775 27.36619718 -64.6875 25.78125 C-66.38347808 23.47956546 -66.31038837 22.13893251 -66.1875 19.3125 C-66.16042969 18.50425781 -66.13335937 17.69601562 -66.10546875 16.86328125 C-66.07066406 16.24839844 -66.03585937 15.63351562 -66 15 C-65.34 15 -64.68 15 -64 15 C-64 14.01 -64 13.02 -64 12 C-63.01 11.67 -62.02 11.34 -61 11 C-60.67 10.34 -60.34 9.68 -60 9 C-58.68 9 -57.36 9 -56 9 C-56 8.34 -56 7.68 -56 7 C-52.535 6.505 -52.535 6.505 -49 6 C-49 4.68 -49 3.36 -49 2 C-45.87703962 0.14935681 -43.62059232 -0.29356154 -40 0 C-39.67 0.33 -39.34 0.66 -39 1 C-37.50261876 1.0979057 -36.00057108 1.12974864 -34.5 1.125 C-33.6853125 1.12757813 -32.870625 1.13015625 -32.03125 1.1328125 C-30.00469623 1.2245178 -30.00469623 1.2245178 -29 0 C-26.20152579 -0.26966026 -23.43054018 -0.47528895 -20.625 -0.625 C-19.81168213 -0.66931152 -18.99836426 -0.71362305 -18.16040039 -0.75927734 C-12.07672048 -1.04532677 -6.01301754 -1.12979453 0 0 Z M-35 15 C-35 19.29 -35 23.58 -35 28 C-35.33 28 -35.66 28 -36 28 C-36.05534912 28.69150146 -36.11069824 29.38300293 -36.16772461 30.09545898 C-36.41963531 33.20987214 -36.67847351 36.32367095 -36.9375 39.4375 C-37.02451172 40.52611328 -37.11152344 41.61472656 -37.20117188 42.73632812 C-37.28818359 43.77080078 -37.37519531 44.80527344 -37.46484375 45.87109375 C-37.543396 46.82943115 -37.62194824 47.78776855 -37.70288086 48.77514648 C-38 51 -38 51 -39 52 C-39.08726223 53.78071246 -39.10699041 55.5648314 -39.09765625 57.34765625 C-39.09443359 58.42724609 -39.09121094 59.50683594 -39.08789062 60.61914062 C-39.07951172 61.75544922 -39.07113281 62.89175781 -39.0625 64.0625 C-39.05798828 65.20267578 -39.05347656 66.34285156 -39.04882812 67.51757812 C-39.0369976 70.34507418 -39.0190615 73.17254345 -39 76 C-34.38 75.67 -29.76 75.34 -25 75 C-25 74.67 -25 74.34 -25 74 C-20.05 73.67 -15.1 73.34 -10 73 C-10 72.34 -10 71.68 -10 71 C-8.02 70.505 -8.02 70.505 -6 70 C-6 69.67 -6 69.34 -6 69 C-3.03 68.505 -3.03 68.505 0 68 C0 67.34 0 66.68 0 66 C1.98 65.505 1.98 65.505 4 65 C4 64.34 4 63.68 4 63 C4.99 63.33 5.98 63.66 7 64 C8.54166642 62.62514468 8.54166642 62.62514468 10 61 C10 60.34 10 59.68 10 59 C10.5775 58.938125 11.155 58.87625 11.75 58.8125 C14.99553208 57.6405023 16.10440864 55.84338705 18 53 C19.25556887 49.82078213 19.25556887 49.82078213 20 47 C20.66 47 21.32 47 22 47 C22 41.06 22 35.12 22 29 C21.34 29 20.68 29 20 29 C19.505 27.02 19.505 27.02 19 25 C18.34 25 17.68 25 17 25 C17 24.01 17 23.02 17 22 C16.01 22 15.02 22 14 22 C14 21.34 14 20.68 14 20 C13.0409375 19.814375 13.0409375 19.814375 12.0625 19.625 C11.0415625 19.315625 11.0415625 19.315625 10 19 C9.505 18.01 9.505 18.01 9 17 C6.21603272 15.2863729 4.12011909 14.75240431 0.87402344 14.77294922 C0.07349548 14.77310028 -0.72703247 14.77325134 -1.55181885 14.77340698 C-2.83327789 14.78889084 -2.83327789 14.78889084 -4.140625 14.8046875 C-5.46389801 14.80893234 -5.46389801 14.80893234 -6.81390381 14.81326294 C-9.62607499 14.82444039 -12.4379254 14.84954049 -15.25 14.875 C-17.15884956 14.88503295 -19.06770412 14.89415825 -20.9765625 14.90234375 C-25.65116489 14.92437176 -30.32552809 14.95888489 -35 15 Z M112 35 C111.566875 36.3921875 111.566875 36.3921875 111.125 37.8125 C110 41 110 41 108 44 C106.67516316 46.94408187 106 48.74289462 106 52 C105.34 52 104.68 52 104 52 C103.87625 53.11375 103.7525 54.2275 103.625 55.375 C103 59 103 59 101 61 C101 61.99 101 62.98 101 64 C100.34 64 99.68 64 99 64 C99 66.31 99 68.62 99 71 C98.01 71 97.02 71 96 71 C96 72.32 96 73.64 96 75 C95.34 75 94.68 75 94 75 C93.67 76.98 93.34 78.96 93 81 C94.7290774 81.02725341 96.45828176 81.04650987 98.1875 81.0625 C99.63189453 81.07990234 99.63189453 81.07990234 101.10546875 81.09765625 C103.85576513 81.00486622 106.32479591 80.62111685 109 80 C109 79.67 109 79.34 109 79 C113.95 78.505 113.95 78.505 119 78 C118.61543609 70.70340574 118.11829807 64.01686236 116 57 C115.55010431 53.34084842 115.2527104 49.67760129 115 46 C114.67 46 114.34 46 114 46 C113.67 42.37 113.34 38.74 113 35 C112.67 35 112.34 35 112 35 Z M92 81 C91.67 81.66 91.34 82.32 91 83 C91.66 83 92.32 83 93 83 C92.67 82.34 92.34 81.68 92 81 Z M149 85 C148.67 86.65 148.34 88.3 148 90 C148.66 90 149.32 90 150 90 C150 88.35 150 86.7 150 85 C149.67 85 149.34 85 149 85 Z M136 90 C135.67 90.99 135.34 91.98 135 93 C135.28875 93.5775 135.5775 94.155 135.875 94.75 C137 97 137 97 137.375 100.25 C138.12053527 104.72321163 139.80881169 108.07624419 142 112 C142.66 112 143.32 112 144 112 C144.66 109.36 145.32 106.72 146 104 C146.33 104 146.66 104 147 104 C147 99.71 147 95.42 147 91 C143.37 90.67 139.74 90.34 136 90 Z " fill="currentColor" transform="translate(449,345)"/>
<path d="M0 0 C1.4370809 -0.05422947 2.87475462 -0.09289723 4.3125 -0.125 C5.11300781 -0.14820313 5.91351563 -0.17140625 6.73828125 -0.1953125 C9 0 9 0 12 2 C12.44140625 4.75 12.44140625 4.75 12.5625 8 C12.51529863 12.52554698 12.51529863 12.52554698 15 16 C15.31884766 18.15478516 15.31884766 18.15478516 15.4140625 20.7890625 C15.45273437 21.73007812 15.49140625 22.67109375 15.53125 23.640625 C15.57765625 25.11789062 15.57765625 25.11789062 15.625 26.625 C15.66367187 27.61757813 15.70234375 28.61015625 15.7421875 29.6328125 C15.8366314 32.08835385 15.92219875 34.5438841 16 37 C16.33 37 16.66 37 17 37 C17.33 42.94 17.66 48.88 18 55 C18.66 55.33 19.32 55.66 20 56 C20 60.95 20 65.9 20 71 C23.465 70.505 23.465 70.505 27 70 C27 69.34 27 68.68 27 68 C31.62 68 36.24 68 41 68 C41 67.34 41 66.68 41 66 C44.96 64.515 44.96 64.515 49 63 C49 62.34 49 61.68 49 61 C50.32 61 51.64 61 53 61 C53 60.34 53 59.68 53 59 C54.32 59 55.64 59 57 59 C57 59.66 57 60.32 57 61 C58.32 61.66 59.64 62.32 61 63 C61 65.64 61 68.28 61 71 C59.68 71.33 58.36 71.66 57 72 C57 72.66 57 73.32 57 74 C56.01 74 55.02 74 54 74 C54 74.66 54 75.32 54 76 C53.360625 76.12375 52.72125 76.2475 52.0625 76.375 C51.381875 76.58125 50.70125 76.7875 50 77 C49.67 77.66 49.34 78.32 49 79 C46.4375 79.625 46.4375 79.625 44 80 C44 80.33 44 80.66 44 81 C42.80375 81.12375 41.6075 81.2475 40.375 81.375 C36.71089833 81.82656183 33.49185201 82.78544278 30 84 C28.00630969 84.36920191 26.00720923 84.71325582 24 85 C24.66 87.64 25.32 90.28 26 93 C26.33 93 26.66 93 27 93 C27.12375 94.19625 27.2475 95.3925 27.375 96.625 C27.83587034 100.27950708 28.5810834 103.57790703 30 107 C30.66 107.33 31.32 107.66 32 108 C32 109.65 32 111.3 32 113 C32.66 113 33.32 113 34 113 C34.43183594 113.64710938 34.86367188 114.29421875 35.30859375 114.9609375 C36.83189541 117.22043341 36.83189541 117.22043341 39.41015625 117.5390625 C40.28542969 117.56742187 41.16070312 117.59578125 42.0625 117.625 C46.80610687 117.80610687 46.80610687 117.80610687 49 120 C49.31537716 124.33643601 49.44897847 126.32653229 47 130 C44.375 131.1875 44.375 131.1875 42 132 C42 132.33 42 132.66 42 133 C39.69 133 37.38 133 35 133 C34.67 132.34 34.34 131.68 34 131 C31.47266765 130.34444881 31.47266765 130.34444881 29 130 C29 129.34 29 128.68 29 128 C28.34 128 27.68 128 27 128 C27 127.01 27 126.02 27 125 C26.01 125 25.02 125 24 125 C22.95107762 123.36368108 21.95093297 121.69514137 21 120 C20.34 119.67 19.68 119.34 19 119 C19 117.02 19 115.04 19 113 C18.34 113 17.68 113 17 113 C16.67 111.35 16.34 109.7 16 108 C15.34 108 14.68 108 14 108 C13.67 105.03 13.34 102.06 13 99 C12.67 99 12.34 99 12 99 C11.32741333 96.66836622 10.66152556 94.3347961 10 92 C9.773125 91.236875 9.54625 90.47375 9.3125 89.6875 C9 88 9 88 10 86 C8.68 86 7.36 86 6 86 C6 86.66 6 87.32 6 88 C-3.3412692 88.61326035 -12.63250185 89.1820896 -22 89 C-22 90.32 -22 91.64 -22 93 C-22.99 93.495 -22.99 93.495 -24 94 C-24.40729228 96.32156597 -24.74438677 98.6568787 -25 101 C-25.66 101 -26.32 101 -27 101 C-27 101.99 -27 102.98 -27 104 C-27.66 104 -28.32 104 -29 104 C-29.33 106.97 -29.66 109.94 -30 113 C-30.66 113 -31.32 113 -32 113 C-32 114.65 -32 116.3 -32 118 C-32.33 118 -32.66 118 -33 118 C-33.66 120.31 -34.32 122.62 -35 125 C-38.3 125 -41.6 125 -45 125 C-45 124.34 -45 123.68 -45 123 C-45.66 123 -46.32 123 -47 123 C-47.04898438 122.07316406 -47.09796875 121.14632812 -47.1484375 120.19140625 C-47.26058594 118.39509766 -47.26058594 118.39509766 -47.375 116.5625 C-47.47941406 114.77005859 -47.47941406 114.77005859 -47.5859375 112.94140625 C-47.72257813 111.97074219 -47.85921875 111.00007813 -48 110 C-48.66 109.67 -49.32 109.34 -50 109 C-50.4140625 106.71484375 -50.4140625 106.71484375 -50.625 103.9375 C-50.73714844 102.55884766 -50.73714844 102.55884766 -50.8515625 101.15234375 C-50.92503906 100.08693359 -50.92503906 100.08693359 -51 99 C-51.33 99 -51.66 99 -52 99 C-52.06058594 98.28972656 -52.12117187 97.57945312 -52.18359375 96.84765625 C-52.26738281 95.92855469 -52.35117188 95.00945312 -52.4375 94.0625 C-52.55931641 92.68771484 -52.55931641 92.68771484 -52.68359375 91.28515625 C-52.76044976 89.03840268 -52.76044976 89.03840268 -54 88 C-54.32097751 85.68182911 -54.51220956 83.36220643 -54.71875 81.03125 C-54.79065837 79.00819407 -54.79065837 79.00819407 -56 78 C-56.99 82.29 -57.98 86.58 -59 91 C-59.66 91 -60.32 91 -61 91 C-61.185625 92.7634375 -61.185625 92.7634375 -61.375 94.5625 C-61.86435935 98.54120426 -62.8055205 102.17766559 -64 106 C-64.66 106 -65.32 106 -66 106 C-66.144375 106.78375 -66.28875 107.5675 -66.4375 108.375 C-67 111 -67 111 -68 113 C-75.40256709 113.48541424 -75.40256709 113.48541424 -78 111.375 C-79.23318878 108.44617664 -79.2145758 106.14711179 -79 103 C-79.66 103 -80.32 103 -81 103 C-81.99 98.545 -81.99 98.545 -83 94 C-83.33 94 -83.66 94 -84 94 C-84.33 92.35 -84.66 90.7 -85 89 C-85.33 89.66 -85.66 90.32 -86 91 C-86.66 91 -87.32 91 -88 91 C-88 91.66 -88 92.32 -88 93 C-88.99 93 -89.98 93 -91 93 C-91 93.99 -91 94.98 -91 96 C-92.65 96 -94.3 96 -96 96 C-96 96.66 -96 97.32 -96 98 C-104.25 98 -112.5 98 -121 98 C-121 97.67 -121 97.34 -121 97 C-122.33804688 96.92652344 -122.33804688 96.92652344 -123.703125 96.8515625 C-124.87359375 96.77679688 -126.0440625 96.70203125 -127.25 96.625 C-128.41015625 96.55539062 -129.5703125 96.48578125 -130.765625 96.4140625 C-134 96 -134 96 -135.9375 95 C-139.07083525 93.48080715 -142.32856901 93.5302256 -145.75 93.375 C-146.44738281 93.33632813 -147.14476562 93.29765625 -147.86328125 93.2578125 C-149.57510818 93.16401376 -151.28751682 93.08093826 -153 93 C-153 92.34 -153 91.68 -153 91 C-170.16 91 -187.32 91 -205 91 C-205 91.66 -205 92.32 -205 93 C-209.455 93.495 -209.455 93.495 -214 94 C-214 94.66 -214 95.32 -214 96 C-215.65 96 -217.3 96 -219 96 C-219.33 96.66 -219.66 97.32 -220 98 C-221.375 99.625 -221.375 99.625 -223 101 C-223.99 101 -224.98 101 -226 101 C-226 102.98 -226 104.96 -226 107 C-226.99 107.495 -226.99 107.495 -228 108 C-228.65555119 110.52733235 -228.65555119 110.52733235 -229 113 C-229.66 113 -230.32 113 -231 113 C-231 113.99 -231 114.98 -231 116 C-238.75 116.125 -238.75 116.125 -241 115 C-242.10850248 110.33465044 -242.34383934 105.62877994 -241 101 C-240.34 101 -239.68 101 -239 101 C-239 99.68 -239 98.36 -239 97 C-238.01 96.505 -238.01 96.505 -237 96 C-236.67 95.01 -236.34 94.02 -236 93 C-235.34 93 -234.68 93 -234 93 C-234 92.34 -234 91.68 -234 91 C-232.75 89.375 -232.75 89.375 -231 88 C-229.68 88 -228.36 88 -227 88 C-227 87.34 -227 86.68 -227 86 C-225.515 85.01 -225.515 85.01 -224 84 C-224 83.67 -224 83.34 -224 83 C-221.36 83 -218.72 83 -216 83 C-216 82.34 -216 81.68 -216 81 C-213.525 80.01 -213.525 80.01 -211 79 C-211 78.67 -211 78.34 -211 78 C-189.55 78 -168.1 78 -146 78 C-145.67 78.66 -145.34 79.32 -145 80 C-142.64400765 80.46751788 -142.64400765 80.46751788 -139.9375 80.625 C-139.01839844 80.69976562 -138.09929687 80.77453125 -137.15234375 80.8515625 C-136.08693359 80.92503906 -136.08693359 80.92503906 -135 81 C-135 81.66 -135 82.32 -135 83 C-134.35450195 82.98952637 -133.70900391 82.97905273 -133.04394531 82.96826172 C-130.11266998 82.92662728 -127.18145696 82.90065025 -124.25 82.875 C-123.23421875 82.85824219 -122.2184375 82.84148437 -121.171875 82.82421875 C-120.1921875 82.81777344 -119.2125 82.81132812 -118.203125 82.8046875 C-117.30239258 82.79421387 -116.40166016 82.78374023 -115.47363281 82.77294922 C-112.84179821 83.01452109 -111.28937582 83.73416801 -109 85 C-106.86712627 85.23920955 -106.86712627 85.23920955 -104.75 85.125 C-103.5125 85.08375 -102.275 85.0425 -101 85 C-100.67 84.34 -100.34 83.68 -100 83 C-98.68 83 -97.36 83 -96 83 C-96 82.01 -96 81.02 -96 80 C-95.34 80 -94.68 80 -94 80 C-94 78.35 -94 76.7 -94 75 C-93.34 75 -92.68 75 -92 75 C-91.67 73.02 -91.34 71.04 -91 69 C-90.34 69 -89.68 69 -89 69 C-89 68.01 -89 67.02 -89 66 C-83.66176471 63.81617647 -83.66176471 63.81617647 -80.75 64.625 C-78.72464623 66.21634939 -77.94895925 67.62760188 -77 70 C-76.67 70 -76.34 70 -76 70 C-75.67 72.64 -75.34 75.28 -75 78 C-74.67 78 -74.34 78 -74 78 C-73.67 80.31 -73.34 82.62 -73 85 C-70.9656541 83.58480285 -70.09589607 82.45017877 -69.578125 80.01953125 C-69.33726048 78.01823046 -69.16467259 76.0090056 -69 74 C-68.67 74 -68.34 74 -68 74 C-67.814375 72.5459375 -67.814375 72.5459375 -67.625 71.0625 C-67.41875 70.051875 -67.2125 69.04125 -67 68 C-66.34 67.67 -65.68 67.34 -65 67 C-64.53476937 65.10466658 -64.53476937 65.10466658 -64.375 62.9375 C-64.189375 60.9884375 -64.189375 60.9884375 -64 59 C-63.67 59 -63.34 59 -63 59 C-62.814375 57.5459375 -62.814375 57.5459375 -62.625 56.0625 C-62.41875 55.051875 -62.2125 54.04125 -62 53 C-61.34 52.67 -60.68 52.34 -60 52 C-59.67 51.01 -59.34 50.02 -59 49 C-55.7 49 -52.4 49 -49 49 C-49 50.65 -49 52.3 -49 54 C-48.34 54 -47.68 54 -47 54 C-46.95101562 54.63808594 -46.90203125 55.27617187 -46.8515625 55.93359375 C-46.73941406 57.17302734 -46.73941406 57.17302734 -46.625 58.4375 C-46.55539063 59.26121094 -46.48578125 60.08492188 -46.4140625 60.93359375 C-46.27742187 61.61550781 -46.14078125 62.29742187 -46 63 C-45.34 63.33 -44.68 63.66 -44 64 C-43.5859375 66.72265625 -43.5859375 66.72265625 -43.375 70.0625 C-43.30023438 71.16722656 -43.22546875 72.27195312 -43.1484375 73.41015625 C-43.09945312 74.26480469 -43.05046875 75.11945313 -43 76 C-42.67 76 -42.34 76 -42 76 C-41.95101562 76.63808594 -41.90203125 77.27617187 -41.8515625 77.93359375 C-41.73941406 79.17302734 -41.73941406 79.17302734 -41.625 80.4375 C-41.52058594 81.67306641 -41.52058594 81.67306641 -41.4140625 82.93359375 C-41.27742187 83.61550781 -41.14078125 84.29742187 -41 85 C-40.34 85.33 -39.68 85.66 -39 86 C-38.40644386 88.64860427 -38.25790731 91.29197322 -38 94 C-37.23283149 91.14921909 -37.23283149 91.14921909 -37 88 C-37.97850195 86.97895449 -38.97980427 85.9793879 -40 85 C-40.1875 81.8125 -40.1875 81.8125 -40 79 C-39.34 79 -38.68 79 -38 79 C-37.67 78.01 -37.34 77.02 -37 76 C-33.535 75.505 -33.535 75.505 -30 75 C-29.01 71.7 -28.02 68.4 -27 65 C-26.34 65 -25.68 65 -25 65 C-25 63.02 -25 61.04 -25 59 C-24.34 59 -23.68 59 -23 59 C-22.855625 58.195625 -22.71125 57.39125 -22.5625 56.5625 C-22 54 -22 54 -21 53 C-20.855625 51.906875 -20.71125 50.81375 -20.5625 49.6875 C-20.08449829 46.55393323 -19.70540253 44.60826269 -18 42 C-17.34 41.67 -16.68 41.34 -16 41 C-15.59270772 38.67843403 -15.25561323 36.3431213 -15 34 C-14.67 34 -14.34 34 -14 34 C-13.67 32.35 -13.34 30.7 -13 29 C-12.01 29 -11.02 29 -10 29 C-10.04125 27.7625 -10.0825 26.525 -10.125 25.25 C-10.125 21.99716438 -9.95704844 19.71812283 -8 17 C-7.01 16.505 -7.01 16.505 -6 16 C-5.53476937 14.10466658 -5.53476937 14.10466658 -5.375 11.9375 C-5.189375 9.9884375 -5.189375 9.9884375 -5 8 C-4.34 8 -3.68 8 -3 8 C-3 6.02 -3 4.04 -3 2 C-2.34 2 -1.68 2 -1 2 C-0.67 1.34 -0.34 0.68 0 0 Z M0 33 C0 34.98 0 36.96 0 39 C-0.66 39 -1.32 39 -2 39 C-2 40.65 -2 42.3 -2 44 C-2.99 44.33 -3.98 44.66 -5 45 C-5.33 46.98 -5.66 48.96 -6 51 C-6.33 51 -6.66 51 -7 51 C-7 52.65 -7 54.3 -7 56 C-7.99 56.33 -8.98 56.66 -10 57 C-10 59.31 -10 61.62 -10 64 C-10.66 64 -11.32 64 -12 64 C-12.309375 64.639375 -12.61875 65.27875 -12.9375 65.9375 C-14 68 -14 68 -15 69 C-15 70.65 -15 72.3 -15 74 C-7.74 73.67 -0.48 73.34 7 73 C6.505 70.525 6.505 70.525 6 68 C5.8842604 66.50091981 5.80221465 64.99885899 5.75390625 63.49609375 C5.70459961 62.26149414 5.70459961 62.26149414 5.65429688 61.00195312 C5.59296414 59.28855134 5.5356899 57.57499959 5.48242188 55.86132812 C5.44826172 55.03955078 5.41410156 54.21777344 5.37890625 53.37109375 C5.3538501 52.62786865 5.32879395 51.88464355 5.30297852 51.11889648 C4.96268565 48.73904008 4.11147657 47.11580321 3 45 C2.641334 42.11844473 2.49734042 39.26230045 2.34375 36.36328125 C2.2303125 35.58339844 2.116875 34.80351562 2 34 C1.34 33.67 0.68 33.34 0 33 Z M-189 89 C-189 89.33 -189 89.66 -189 90 C-184.71 90 -180.42 90 -176 90 C-176 89.67 -176 89.34 -176 89 C-180.29 89 -184.58 89 -189 89 Z " fill="currentColor" transform="translate(270,340)"/>
<path d="M0 0 C1.98 0 3.96 0 6 0 C6 0.66 6 1.32 6 2 C6.639375 2.28875 7.27875 2.5775 7.9375 2.875 C10 4 10 4 11 6 C10.91061582 8.88912732 10.765952 11.74393255 10.5625 14.625 C10.51029297 15.42679687 10.45808594 16.22859375 10.40429688 17.0546875 C10.27451629 19.03679103 10.13790265 21.01844499 10 23 C9.34 23 8.68 23 8 23 C8 33.23 8 43.46 8 54 C7.67 54 7.34 54 7 54 C6.80083984 55.71509766 6.80083984 55.71509766 6.59765625 57.46484375 C6.4194969 58.9557562 6.24109918 60.44664018 6.0625 61.9375 C5.97548828 62.69224609 5.88847656 63.44699219 5.79882812 64.22460938 C5.11328125 69.88671875 5.11328125 69.88671875 4 71 C3.87767356 72.47250645 3.8222544 73.95065711 3.79467773 75.42797852 C3.7647599 76.83932823 3.7647599 76.83932823 3.73423767 78.27919006 C3.70916893 79.81354958 3.70916893 79.81354958 3.68359375 81.37890625 C3.66281265 82.42070541 3.64203156 83.46250458 3.62062073 84.53587341 C3.55500943 87.87801247 3.49618669 91.22023285 3.4375 94.5625 C3.39432578 96.82227418 3.35071186 99.08204001 3.30664062 101.34179688 C3.19931633 106.89444421 3.09757188 112.44717321 3 118 C3.66 118 4.32 118 5 118 C4.66666667 119.66666667 4.33333333 121.33333333 4 123 C3.855625 123.886875 3.71125 124.77375 3.5625 125.6875 C3 128 3 128 1 130 C-1.92951369 130.2790013 -4.15631076 130.4788142 -7 130 C-8.875 128.25 -8.875 128.25 -10 126 C-10.3491748 125.44602539 -10.69834961 124.89205078 -11.05810547 124.32128906 C-12.39372768 121.02966232 -12.22343768 118.15314723 -12.1953125 114.609375 C-12.1924826 113.90476135 -12.18965271 113.20014771 -12.18673706 112.47418213 C-12.17557801 110.2326124 -12.15048193 107.99144814 -12.125 105.75 C-12.11496464 104.22656829 -12.10583976 102.70313029 -12.09765625 101.1796875 C-12.07565291 97.45299414 -12.04115272 93.72653667 -12 90 C-11.67 90 -11.34 90 -11 90 C-10.67 77.79 -10.34 65.58 -10 53 C-9.01 52.505 -9.01 52.505 -8 52 C-7.67 41.77 -7.34 31.54 -7 21 C-6.67 21 -6.34 21 -6 21 C-5.67 15.39 -5.34 9.78 -5 4 C-4.34 4 -3.68 4 -3 4 C-3 3.34 -3 2.68 -3 2 C-2.01 2 -1.02 2 0 2 C0 1.34 0 0.68 0 0 Z " fill="currentColor" transform="translate(353,345)"/>
<path d="M0 0 C0.99 0.33 1.98 0.66 3 1 C3 16.18 3 31.36 3 47 C0.525 47.495 0.525 47.495 -2 48 C-2 37.44 -2 26.88 -2 16 C-1.67 16 -1.34 16 -1 16 C-0.67 10.72 -0.34 5.44 0 0 Z " fill="currentColor" transform="translate(343,419)"/>
<path d="M0 0 C0.66 0 1.32 0 2 0 C1.67 1.65 1.34 3.3 1 5 C0.01 5.33 -0.98 5.66 -2 6 C-2 6.66 -2 7.32 -2 8 C-2.99 8 -3.98 8 -5 8 C-5 8.66 -5 9.32 -5 10 C-5.66 10 -6.32 10 -7 10 C-7 10.99 -7 11.98 -7 13 C-8.98 13 -10.96 13 -13 13 C-13 13.66 -13 14.32 -13 15 C-19.27 15 -25.54 15 -32 15 C-32 14.34 -32 13.68 -32 13 C-34.64 13 -37.28 13 -40 13 C-40.33 12.34 -40.66 11.68 -41 11 C-41.99 10.67 -42.98 10.34 -44 10 C-44 9.34 -44 8.68 -44 8 C-45.32 7.67 -46.64 7.34 -48 7 C-48 6.34 -48 5.68 -48 5 C-45.525 5.495 -45.525 5.495 -43 6 C-43 6.66 -43 7.32 -43 8 C-40.69 8 -38.38 8 -36 8 C-36 8.33 -36 8.66 -36 9 C-32.57426063 9.77528479 -29.42760755 10.11918778 -25.91796875 10.09765625 C-24.98662109 10.09443359 -24.05527344 10.09121094 -23.09570312 10.08789062 C-22.13599609 10.07951172 -21.17628906 10.07113281 -20.1875 10.0625 C-19.20845703 10.05798828 -18.22941406 10.05347656 -17.22070312 10.04882812 C-14.81373889 10.03708684 -12.40690143 10.02066419 -10 10 C-10 9.34 -10 8.68 -10 8 C-4.25 5 -4.25 5 -2 5 C-2 4.34 -2 3.68 -2 3 C-1.34 3 -0.68 3 0 3 C0 2.01 0 1.02 0 0 Z " fill="currentColor" transform="translate(510,452)"/>
<path d="M0 0 C0.66 0 1.32 0 2 0 C2.33 5.28 2.66 10.56 3 16 C3.33 16 3.66 16 4 16 C4.33 23.92 4.66 31.84 5 40 C3.515 40.495 3.515 40.495 2 41 C1.92652344 40.04287109 1.92652344 40.04287109 1.8515625 39.06640625 C1.73941406 37.82697266 1.73941406 37.82697266 1.625 36.5625 C1.55539062 35.73878906 1.48578125 34.91507812 1.4140625 34.06640625 C1.27742187 33.38449219 1.14078125 32.70257813 1 32 C0.34 31.67 -0.32 31.34 -1 31 C-1.02465622 26.74585377 -1.04283899 22.49174502 -1.05493164 18.23754883 C-1.05997101 16.78929927 -1.06680253 15.34105483 -1.07543945 13.89282227 C-1.08752247 11.81525412 -1.09323211 9.73775303 -1.09765625 7.66015625 C-1.10289307 6.40855713 -1.10812988 5.15695801 -1.11352539 3.86743164 C-1 1 -1 1 0 0 Z " fill="currentColor" transform="translate(573,360)"/>
<path d="M0 0 C1.98 0 3.96 0 6 0 C5 3 5 3 2 5 C1.01 5 0.02 5 -1 5 C-1 5.66 -1 6.32 -1 7 C-5.40914783 8.10228696 -9.48382401 8.07654536 -14 8 C-14 8.66 -14 9.32 -14 10 C-20.6 10 -27.2 10 -34 10 C-33.67 8.68 -33.34 7.36 -33 6 C-32.01 6 -31.02 6 -30 6 C-30 5.67 -30 5.34 -30 5 C-21.09 5 -12.18 5 -3 5 C-3 4.34 -3 3.68 -3 3 C-2.01 2.34 -1.02 1.68 0 1 C0 0.67 0 0.34 0 0 Z " fill="currentColor" transform="translate(442,413)"/>
<path d="M0 0 C0.99 0 1.98 0 3 0 C3 1.65 3 3.3 3 5 C4.60379341 5.05416188 6.20811406 5.09286638 7.8125 5.125 C8.70582031 5.14820313 9.59914063 5.17140625 10.51953125 5.1953125 C13.25402714 5.18285827 13.25402714 5.18285827 16 3 C19.13671875 2.5859375 19.13671875 2.5859375 22.6875 2.375 C23.86699219 2.30023438 25.04648437 2.22546875 26.26171875 2.1484375 C27.16535156 2.09945313 28.06898438 2.05046875 29 2 C29 3.32 29 4.64 29 6 C27.35 6 25.7 6 24 6 C24 6.66 24 7.32 24 8 C19.38 8 14.76 8 10 8 C10 8.66 10 9.32 10 10 C6.37 10 2.74 10 -1 10 C-1.33 8.35 -1.66 6.7 -2 5 C-1.34 5 -0.68 5 0 5 C0 3.35 0 1.7 0 0 Z M1 6 C0.67 6.66 0.34 7.32 0 8 C0.66 8 1.32 8 2 8 C1.67 7.34 1.34 6.68 1 6 Z " fill="currentColor" transform="translate(540,420)"/>
<path d="M0 0 C0.99 0 1.98 0 3 0 C3 6.93 3 13.86 3 21 C2.34 21 1.68 21 1 21 C1 23.31 1 25.62 1 28 C0.01 28 -0.98 28 -2 28 C-2 20.08 -2 12.16 -2 4 C-1.34 4 -0.68 4 0 4 C0 2.68 0 1.36 0 0 Z " fill="currentColor" transform="translate(399,378)"/>
<path d="M0 0 C0.66 0 1.32 0 2 0 C2 6.93 2 13.86 2 21 C1.67 21 1.34 21 1 21 C0.67 24.63 0.34 28.26 0 32 C-0.99 32 -1.98 32 -3 32 C-3.02724423 29.16660035 -3.04695589 26.33346883 -3.0625 23.5 C-3.07087891 22.70851563 -3.07925781 21.91703125 -3.08789062 21.1015625 C-3.11804551 13.74377071 -2.61161928 6.96431809 0 0 Z " fill="currentColor" transform="translate(629,439)"/>
<path d="M0 0 C16.5 0 33 0 50 0 C50 0.66 50 1.32 50 2 C33.5 2.33 17 2.66 0 3 C0 2.01 0 1.02 0 0 Z " fill="currentColor" transform="translate(66,418)"/>
<path d="M0 0 C0.99 0.33 1.98 0.66 3 1 C3 2.98 3 4.96 3 7 C3.66 7 4.32 7 5 7 C5.33 15.25 5.66 23.5 6 32 C5.01 32 4.02 32 3 32 C2.67 28.7 2.34 25.4 2 22 C1.67 22 1.34 22 1 22 C0.83204189 18.89590179 0.66585677 15.79171114 0.5 12.6875 C0.45230469 11.80642578 0.40460937 10.92535156 0.35546875 10.01757812 C0.31035156 9.17001953 0.26523437 8.32246094 0.21875 7.44921875 C0.17685547 6.66893311 0.13496094 5.88864746 0.09179688 5.0847168 C0.01722476 3.39117604 0 1.69518179 0 0 Z " fill="currentColor" transform="translate(608,467)"/>
<path d="M0 0 C3.63 0 7.26 0 11 0 C11 0.66 11 1.32 11 2 C5.69960141 3.66554027 0.52706913 5.27275406 -5 6 C-4.67 8.64 -4.34 11.28 -4 14 C-4.99 14 -5.98 14 -7 14 C-7 12.68 -7 11.36 -7 10 C-7.66 10 -8.32 10 -9 10 C-9 7.36 -9 4.72 -9 2 C-6.03 2 -3.06 2 0 2 C0 1.34 0 0.68 0 0 Z " fill="currentColor" transform="translate(299,419)"/>
<path d="M0 0 C0.70640625 0.09990234 1.4128125 0.19980469 2.140625 0.30273438 C3.88621607 0.55041959 5.63072084 0.80573871 7.375 1.0625 C7.375 1.7225 7.375 2.3825 7.375 3.0625 C12.655 3.0625 17.935 3.0625 23.375 3.0625 C23.375 3.7225 23.375 4.3825 23.375 5.0625 C16.115 5.0625 8.855 5.0625 1.375 5.0625 C1.375 4.4025 1.375 3.7425 1.375 3.0625 C-2.255 3.0625 -5.885 3.0625 -9.625 3.0625 C-9.625 2.0725 -9.625 1.0825 -9.625 0.0625 C-6.48694878 -1.50652561 -3.35881412 -0.49886446 0 0 Z " fill="currentColor" transform="translate(127.625,419.9375)"/>
<path d="M0 0 C0.66 0 1.32 0 2 0 C2.33 3.63 2.66 7.26 3 11 C3.33 11 3.66 11 4 11 C4 13.31 4 15.62 4 18 C8.29 18 12.58 18 17 18 C17 18.66 17 19.32 17 20 C14.54101345 20.08076963 12.08466258 20.14037143 9.625 20.1875 C8.92632813 20.21263672 8.22765625 20.23777344 7.5078125 20.26367188 C5.4765625 20.29296875 5.4765625 20.29296875 2 20 C-0.03120707 16.95318939 -0.24659875 16.39881676 -0.1953125 12.98828125 C-0.18886719 12.23095703 -0.18242188 11.47363281 -0.17578125 10.69335938 C-0.15902344 9.90767578 -0.14226563 9.12199219 -0.125 8.3125 C-0.11597656 7.51521484 -0.10695313 6.71792969 -0.09765625 5.89648438 C-0.07411585 3.930861 -0.03824547 1.96539225 0 0 Z " fill="currentColor" transform="translate(578,405)"/>
<path d="M0 0 C1.32 0 2.64 0 4 0 C4 2.64 4 5.28 4 8 C3.34 8 2.68 8 2 8 C2 13.28 2 18.56 2 24 C1.01 24 0.02 24 -1 24 C-2.12727273 19.49090909 -2.12727273 19.49090909 -1.5625 17.3125 C-0.75540516 13.99444342 -0.63336817 10.64718891 -0.4375 7.25 C-0.39431641 6.55261719 -0.35113281 5.85523438 -0.30664062 5.13671875 C-0.20110404 3.42468078 -0.1001009 1.71236439 0 0 Z " fill="currentColor" transform="translate(346,382)"/>
<path d="M0 0 C2.49361571 1.20381448 4.68143083 2.45428722 7 4 C7 4.99 7 5.98 7 7 C11.62 6.67 16.24 6.34 21 6 C21 5.01 21 4.02 21 3 C21.99 3.33 22.98 3.66 24 4 C23.8125 5.875 23.8125 5.875 23 8 C20.4375 9.25 20.4375 9.25 18 10 C18 10.33 18 10.66 18 11 C15.69 11 13.38 11 11 11 C10.67 10.34 10.34 9.68 10 9 C7.47266765 8.34444881 7.47266765 8.34444881 5 8 C5 7.34 5 6.68 5 6 C4.34 6 3.68 6 3 6 C3 5.01 3 4.02 3 3 C2.01 3 1.02 3 0 3 C0 2.01 0 1.02 0 0 Z " fill="currentColor" transform="translate(294,462)"/>
<path d="M0 0 C2.31 0 4.62 0 7 0 C7 0.66 7 1.32 7 2 C11.62 2 16.24 2 21 2 C21.33 3.32 21.66 4.64 22 6 C16.06 5.67 10.12 5.34 4 5 C4 4.34 4 3.68 4 3 C2.68 2.67 1.36 2.34 0 2 C0 1.34 0 0.68 0 0 Z " fill="currentColor" transform="translate(693,441)"/>
<path d="M0 0 C1.67542976 0.28604898 3.34385343 0.61781233 5 1 C5 2.65 5 4.3 5 6 C4.34 6 3.68 6 3 6 C2.67 5.01 2.34 4.02 2 3 C1.67 3.66 1.34 4.32 1 5 C0.34 5 -0.32 5 -1 5 C-1 5.66 -1 6.32 -1 7 C-1.99 7 -2.98 7 -4 7 C-4 7.99 -4 8.98 -4 10 C-8.455 10.495 -8.455 10.495 -13 11 C-13 9.68 -13 8.36 -13 7 C-11.906875 6.855625 -10.81375 6.71125 -9.6875 6.5625 C-6.06877013 6.11711896 -6.06877013 6.11711896 -3 5 C-1.8499169 3.03327085 -1.8499169 3.03327085 -1 1 C-0.67 0.67 -0.34 0.34 0 0 Z " fill="currentColor" transform="translate(183,426)"/>
<path d="M0 0 C7.92 0 15.84 0 24 0 C24 0.66 24 1.32 24 2 C18.71566323 3.03087881 13.48895352 3.31611358 8.125 3.5625 C7.24585938 3.60568359 6.36671875 3.64886719 5.4609375 3.69335938 C3.30744203 3.79869339 1.15373936 3.89977649 -1 4 C-0.67 2.68 -0.34 1.36 0 0 Z " fill="currentColor" transform="translate(655,428)"/>
<path d="M0 0 C0.33 0.66 0.66 1.32 1 2 C1.99 2.33 2.98 2.66 4 3 C4.19645093 6.12450532 4.38063489 9.24961445 4.5625 12.375 C4.61857422 13.26445312 4.67464844 14.15390625 4.73242188 15.0703125 C4.78076172 15.92109375 4.82910156 16.771875 4.87890625 17.6484375 C4.9260376 18.43395996 4.97316895 19.21948242 5.02172852 20.02880859 C5 22 5 22 4 24 C3.01 23.67 2.02 23.34 1 23 C0.67 15.41 0.34 7.82 0 0 Z " fill="currentColor" transform="translate(635,392)"/>
<path d="M0 0 C5.28 0 10.56 0 16 0 C15.67 0.66 15.34 1.32 15 2 C12.49609375 2.4140625 12.49609375 2.4140625 9.4375 2.625 C8.42558594 2.69976562 7.41367187 2.77453125 6.37109375 2.8515625 C5.58863281 2.90054687 4.80617188 2.94953125 4 3 C4 3.66 4 4.32 4 5 C-0.95 5 -5.9 5 -11 5 C-10.67 4.34 -10.34 3.68 -10 3 C-7.71484375 2.5859375 -7.71484375 2.5859375 -4.9375 2.375 C-4.01839844 2.30023438 -3.09929688 2.22546875 -2.15234375 2.1484375 C-1.44207031 2.09945313 -0.73179687 2.05046875 0 2 C0 1.34 0 0.68 0 0 Z " fill="currentColor" transform="translate(544,436)"/>
<path d="M0 0 C5.94 0 11.88 0 18 0 C18 0.66 18 1.32 18 2 C8.43 2.99 -1.14 3.98 -11 5 C-11.33 4.01 -11.66 3.02 -12 2 C-8.04 2 -4.08 2 0 2 C0 1.34 0 0.68 0 0 Z " fill="currentColor" transform="translate(73,427)"/>
<path d="M0 0 C0.99 0 1.98 0 3 0 C3.08157402 4.97601533 3.0181864 9.90809022 2.6875 14.875 C2.62949219 15.77992188 2.57148438 16.68484375 2.51171875 17.6171875 C1.92928999 20.32926035 1.12484709 21.27961442 -1 23 C-2 22 -2 22 -2.09765625 19.93359375 C-2.08605469 19.10988281 -2.07445312 18.28617187 -2.0625 17.4375 C-2.05347656 16.61121094 -2.04445313 15.78492188 -2.03515625 14.93359375 C-2.02355469 14.29550781 -2.01195312 13.65742188 -2 13 C-1.34 13 -0.68 13 0 13 C0 8.71 0 4.42 0 0 Z " fill="currentColor" transform="translate(356,395)"/>
<path d="M0 0 C0.66 0 1.32 0 2 0 C2.28571429 8.57142857 2.28571429 8.57142857 0 12 C-0.66 12 -1.32 12 -2 12 C-2.185625 13.6396875 -2.185625 13.6396875 -2.375 15.3125 C-3 19 -3 19 -5 22 C-5.66 22 -6.32 22 -7 22 C-7.29554656 14.31578947 -7.29554656 14.31578947 -5 11 C-4.34 10.67 -3.68 10.34 -3 10 C-2.65458149 7.66842508 -2.32205743 5.33491639 -2 3 C-1.34 2.01 -0.68 1.02 0 0 Z " fill="currentColor" transform="translate(257,371)"/>
<path d="M0 0 C0.33 0 0.66 0 1 0 C1.66 2.97 2.32 5.94 3 9 C3.33 9 3.66 9 4 9 C4 14.28 4 19.56 4 25 C3.01 25 2.02 25 1 25 C0.24636948 21.64908229 -0.11979937 18.56890188 -0.09765625 15.13671875 C-0.09443359 14.25048828 -0.09121094 13.36425781 -0.08789062 12.45117188 C-0.07951172 11.53916016 -0.07113281 10.62714844 -0.0625 9.6875 C-0.05798828 8.75615234 -0.05347656 7.82480469 -0.04882812 6.86523438 C-0.03709234 4.57675627 -0.02067363 2.28841192 0 0 Z " fill="currentColor" transform="translate(281,347)"/>
<path d="M0 0 C0.99 0 1.98 0 3 0 C3 1.65 3 3.3 3 5 C5.64 5.33 8.28 5.66 11 6 C10.67 7.32 10.34 8.64 10 10 C6.37 10 2.74 10 -1 10 C-1.33 8.35 -1.66 6.7 -2 5 C-1.34 5 -0.68 5 0 5 C0 3.35 0 1.7 0 0 Z M1 6 C0.67 6.66 0.34 7.32 0 8 C0.66 8 1.32 8 2 8 C1.67 7.34 1.34 6.68 1 6 Z " fill="currentColor" transform="translate(540,420)"/>
<path d="M0 0 C0.99 0 1.98 0 3 0 C3 1.65 3 3.3 3 5 C2.01 5.495 2.01 5.495 1 6 C0.64820803 8.3306218 0.31669821 10.66435067 0 13 C-0.75 15.3125 -0.75 15.3125 -2 17 C-4.625 18.25 -4.625 18.25 -7 19 C-7 18.01 -7 17.02 -7 16 C-6.34 16 -5.68 16 -5 16 C-5 13.69 -5 11.38 -5 9 C-4.34 8.67 -3.68 8.34 -3 8 C-2.34786708 5.97536745 -2.34786708 5.97536745 -2 4 C-1.34 4 -0.68 4 0 4 C0 2.68 0 1.36 0 0 Z " fill="currentColor" transform="translate(265,379)"/>
<path d="M0 0 C0.33 0 0.66 0 1 0 C1.02895225 3.29164829 1.0467823 6.58326399 1.0625 9.875 C1.07087891 10.81214844 1.07925781 11.74929688 1.08789062 12.71484375 C1.09111328 13.61074219 1.09433594 14.50664062 1.09765625 15.4296875 C1.10289307 16.25710449 1.10812988 17.08452148 1.11352539 17.93701172 C1 20 1 20 0 22 C-3.96 22 -7.92 22 -12 22 C-12.33 20.68 -12.66 19.36 -13 18 C-12.505 18.33 -12.01 18.66 -11.5 19 C-8.96393763 20.01442495 -7.52880953 20.1061595 -4.84375 20.0625 C-3.5753125 20.041875 -2.306875 20.02125 -1 20 C-1.00523682 19.42967041 -1.01047363 18.85934082 -1.01586914 18.27172852 C-1.03658221 15.70199677 -1.0496419 13.13228253 -1.0625 10.5625 C-1.07087891 9.66466797 -1.07925781 8.76683594 -1.08789062 7.84179688 C-1.09111328 6.98779297 -1.09433594 6.13378906 -1.09765625 5.25390625 C-1.10289307 4.46314697 -1.10812988 3.6723877 -1.11352539 2.85766602 C-1 1 -1 1 0 0 Z " fill="currentColor" transform="translate(407,453)"/>
<path d="M0 0 C0.33 0.66 0.66 1.32 1 2 C0.34 2 -0.32 2 -1 2 C-1.66 4.97 -2.32 7.94 -3 11 C0.96 11 4.92 11 9 11 C8.67 11.66 8.34 12.32 8 13 C7.01 13.33 6.02 13.66 5 14 C4.67 14.66 4.34 15.32 4 16 C-1.49295775 16.36619718 -1.49295775 16.36619718 -3.6875 14.78125 C-5.38347808 12.47956546 -5.31038837 11.13893251 -5.1875 8.3125 C-5.16042969 7.50425781 -5.13335937 6.69601562 -5.10546875 5.86328125 C-5.07066406 5.24839844 -5.03585937 4.63351562 -5 4 C-4.34 4 -3.68 4 -3 4 C-3 3.01 -3 2.02 -3 1 C-2.01 0.67 -1.02 0.34 0 0 Z " fill="currentColor" transform="translate(388,356)"/>
<path d="M0 0 C0.66 0 1.32 0 2 0 C1.67 1.65 1.34 3.3 1 5 C0.01 5.33 -0.98 5.66 -2 6 C-2 6.66 -2 7.32 -2 8 C-2.99 8 -3.98 8 -5 8 C-5 8.66 -5 9.32 -5 10 C-5.66 10 -6.32 10 -7 10 C-7 10.99 -7 11.98 -7 13 C-10.63 13.33 -14.26 13.66 -18 14 C-17.67 13.34 -17.34 12.68 -17 12 C-15.68 12 -14.36 12 -13 12 C-13 11.34 -13 10.68 -13 10 C-12.01 10 -11.02 10 -10 10 C-10 9.34 -10 8.68 -10 8 C-4.25 5 -4.25 5 -2 5 C-2 4.34 -2 3.68 -2 3 C-1.34 3 -0.68 3 0 3 C0 2.01 0 1.02 0 0 Z " fill="currentColor" transform="translate(510,452)"/>
<path d="M0 0 C0.66 0 1.32 0 2 0 C2 1.32 2 2.64 2 4 C1.34 4 0.68 4 0 4 C0 5.32 0 6.64 0 8 C-1.29735507 9.04625409 -2.63266972 10.04701223 -4 11 C-4.33 11.99 -4.66 12.98 -5 14 C-5.99 14.33 -6.98 14.66 -8 15 C-9.20882096 17.00016466 -9.20882096 17.00016466 -10 19 C-11.32 19 -12.64 19 -14 19 C-14.33 19.99 -14.66 20.98 -15 22 C-15.66 22 -16.32 22 -17 22 C-17 21.01 -17 20.02 -17 19 C-16.34 19 -15.68 19 -15 19 C-15 18.34 -15 17.68 -15 17 C-14.01 17 -13.02 17 -12 17 C-12 16.34 -12 15.68 -12 15 C-10.50390625 13.5625 -10.50390625 13.5625 -8.5625 12 C-5.84811762 9.85474956 -5.84811762 9.85474956 -4 7 C-3.34 7 -2.68 7 -2 7 C-1.855625 6.401875 -1.71125 5.80375 -1.5625 5.1875 C-1.1127561 3.43849596 -0.57107659 1.71322977 0 0 Z " fill="currentColor" transform="translate(479,397)"/>
<path d="M0 0 C0.33 0 0.66 0 1 0 C1.28571429 7.42857143 1.28571429 7.42857143 -1 11 C-1.66 11 -2.32 11 -3 11 C-3 13.31 -3 15.62 -3 18 C-3.66 18 -4.32 18 -5 18 C-5 18.66 -5 19.32 -5 20 C-5.99 20 -6.98 20 -8 20 C-7.32829194 16.1936543 -6.27253436 12.64793184 -5 9 C-4.34 9 -3.68 9 -3 9 C-3 7.02 -3 5.04 -3 3 C-2.34 3 -1.68 3 -1 3 C-0.67 2.01 -0.34 1.02 0 0 Z " fill="currentColor" transform="translate(550,373)"/>
<path d="M0 0 C0.99 0 1.98 0 3 0 C2.67 5.61 2.34 11.22 2 17 C1.34 17 0.68 17 0 17 C0 18.65 0 20.3 0 22 C-0.66 22 -1.32 22 -2 22 C-2.02689216 20.52093108 -2.04634621 19.04172517 -2.0625 17.5625 C-2.07410156 16.73878906 -2.08570313 15.91507812 -2.09765625 15.06640625 C-2 13 -2 13 -1 12 C-0.76572222 9.98405418 -0.58663876 7.961526 -0.4375 5.9375 C-0.35371094 4.83277344 -0.26992188 3.72804688 -0.18359375 2.58984375 C-0.12300781 1.73519531 -0.06242187 0.88054687 0 0 Z " fill="currentColor" transform="translate(361,351)"/>
<path d="M0 0 C0.66 0 1.32 0 2 0 C2 9.24 2 18.48 2 28 C1.01 28 0.02 28 -1 28 C-0.67 18.76 -0.34 9.52 0 0 Z " fill="currentColor" transform="translate(395,419)"/>
<path d="M0 0 C0 1.32 0 2.64 0 4 C-1.98 4 -3.96 4 -6 4 C-6 4.99 -6 5.98 -6 7 C-11.94 7.495 -11.94 7.495 -18 8 C-17.67 6.68 -17.34 5.36 -17 4 C-14.36 4 -11.72 4 -9 4 C-9 3.34 -9 2.68 -9 2 C-3.375 0 -3.375 0 0 0 Z " fill="currentColor" transform="translate(63,419)"/>
<path d="M0 0 C0.66 0 1.32 0 2 0 C2 2.31 2 4.62 2 7 C5.465 6.505 5.465 6.505 9 6 C9.66 4.02 10.32 2.04 11 0 C11.99 0 12.98 0 14 0 C13.67 2.31 13.34 4.62 13 7 C12.34 7 11.68 7 11 7 C11 7.99 11 8.98 11 10 C3.25 10.125 3.25 10.125 1 9 C0.5859375 6.93359375 0.5859375 6.93359375 0.375 4.4375 C0.30023437 3.61121094 0.22546875 2.78492188 0.1484375 1.93359375 C0.09945313 1.29550781 0.05046875 0.65742188 0 0 Z " fill="currentColor" transform="translate(28,446)"/>
<path d="M0 0 C1.62490954 -0.02698189 3.24994633 -0.04638757 4.875 -0.0625 C5.77992188 -0.07410156 6.68484375 -0.08570313 7.6171875 -0.09765625 C10 0 10 0 12 1 C12 2.65 12 4.3 12 6 C12.66 6 13.32 6 14 6 C14 8.31 14 10.62 14 13 C13.34 13 12.68 13 12 13 C9.52941176 7.07058824 9.52941176 7.07058824 9 4 C9.33 3.34 9.66 2.68 10 2 C9.484375 2.165 8.96875 2.33 8.4375 2.5 C5.26636124 3.15049 2.22781666 3.0620734 -1 3 C-0.67 2.01 -0.34 1.02 0 0 Z " fill="currentColor" transform="translate(270,424)"/>
<path d="M0 0 C0.66 0 1.32 0 2 0 C4.42479736 3.63719605 4.38662577 5.85703482 4.625 10.1875 C4.69976563 11.45980469 4.77453125 12.73210937 4.8515625 14.04296875 C4.90054688 15.01878906 4.94953125 15.99460937 5 17 C4.01 17 3.02 17 2 17 C-0.25998595 13.40537669 -0.20868087 10.43404325 -0.125 6.25 C-0.09792969 4.49429687 -0.09792969 4.49429687 -0.0703125 2.703125 C-0.04710937 1.81109375 -0.02390625 0.9190625 0 0 Z " fill="currentColor" transform="translate(572,437)"/>
<path d="M0 0 C1.13598633 0.14018555 1.13598633 0.14018555 2.29492188 0.28320312 C3.08060547 0.38697266 3.86628906 0.49074219 4.67578125 0.59765625 C5.87170898 0.74750977 5.87170898 0.74750977 7.09179688 0.90039062 C9.0580556 1.14764472 11.02327831 1.40311262 12.98828125 1.66015625 C12.98828125 2.65015625 12.98828125 3.64015625 12.98828125 4.66015625 C5.72828125 4.33015625 -1.53171875 4.00015625 -9.01171875 3.66015625 C-6.361792 -0.31473388 -4.46397101 -0.57058276 0 0 Z " fill="currentColor" transform="translate(668.01171875,437.33984375)"/>
<path d="M0 0 C0.66 0 1.32 0 2 0 C2 6.27 2 12.54 2 19 C1.01 18.67 0.02 18.34 -1 18 C-1.02684312 15.18743719 -1.04676188 12.37512759 -1.0625 9.5625 C-1.07087891 8.76005859 -1.07925781 7.95761719 -1.08789062 7.13085938 C-1.0965143 5.08704779 -1.0522815 3.04316098 -1 1 C-0.67 0.67 -0.34 0.34 0 0 Z " fill="currentColor" transform="translate(343,447)"/>
<path d="M0 0 C0.99 0 1.98 0 3 0 C2.67 7.92 2.34 15.84 2 24 C1.34 24 0.68 24 0 24 C0 16.08 0 8.16 0 0 Z " fill="currentColor" transform="translate(411,363)"/>
<path d="M0 0 C0.66 0 1.32 0 2 0 C3.37871915 3.82977542 2.87113444 7.07989501 2 11 C-1.22143276 13.14762184 -2.2595467 13.561068 -6 13 C-7.8125 11.1875 -7.8125 11.1875 -9 9 C-9 8.01 -9 7.02 -9 6 C-8.34 6 -7.68 6 -7 6 C-6.67 6.66 -6.34 7.32 -6 8 C-2.97065509 8.65772428 -2.97065509 8.65772428 0 9 C0 6.03 0 3.06 0 0 Z " fill="currentColor" transform="translate(622,494)"/>
<path d="M0 0 C0.99 0 1.98 0 3 0 C3 2.64 3 5.28 3 8 C3.66 8 4.32 8 5 8 C6.31626692 11.61973402 7 14.09567131 7 18 C6.34 18 5.68 18 5 18 C3 16 3 16 2.875 12.875 C2.91625 11.92625 2.9575 10.9775 3 10 C2.34 10 1.68 10 1 10 C-0.60725635 6.78548731 -0.05748185 3.56387464 0 0 Z " fill="currentColor" transform="translate(188,433)"/>
<path d="M0 0 C0.66 0 1.32 0 2 0 C2 8.25 2 16.5 2 25 C1.01 25 0.02 25 -1 25 C-0.67 16.75 -0.34 8.5 0 0 Z " fill="currentColor" transform="translate(343,419)"/>
<path d="M0 0 C1.98 0 3.96 0 6 0 C5 3 5 3 2 5 C1.01 5 0.02 5 -1 5 C-1 5.66 -1 6.32 -1 7 C-5.29 7 -9.58 7 -14 7 C-14 6.34 -14 5.68 -14 5 C-10.37 5 -6.74 5 -3 5 C-3 4.34 -3 3.68 -3 3 C-2.01 2.34 -1.02 1.68 0 1 C0 0.67 0 0.34 0 0 Z " fill="currentColor" transform="translate(442,413)"/>
<path d="M0 0 C12.21 0 24.42 0 37 0 C37 0.33 37 0.66 37 1 C35.85168701 1.03758423 35.85168701 1.03758423 34.68017578 1.07592773 C31.16166069 1.19303454 27.64333945 1.31523405 24.125 1.4375 C22.92101562 1.47681641 21.71703125 1.51613281 20.4765625 1.55664062 C13.61493058 1.79903523 6.81999001 2.19747447 0 3 C0 2.01 0 1.02 0 0 Z " fill="currentColor" transform="translate(66,418)"/>
<path d="M0 0 C0.99 0.33 1.98 0.66 3 1 C2.67 8.26 2.34 15.52 2 23 C1.34 23 0.68 23 0 23 C0 15.41 0 7.82 0 0 Z " fill="currentColor" transform="translate(408,389)"/>
<path d="M0 0 C8.25 0 16.5 0 25 0 C25 0.66 25 1.32 25 2 C16.50375215 2.89073566 8.48881273 2.99418527 0 2 C0 1.34 0 0.68 0 0 Z " fill="currentColor" transform="translate(730,446)"/>
<path d="M0 0 C0.99 0 1.98 0 3 0 C1.125 3.875 1.125 3.875 0 5 C-2.69654854 5.07319621 -5.36691458 5.09242537 -8.0625 5.0625 C-8.82111328 5.05798828 -9.57972656 5.05347656 -10.36132812 5.04882812 C-12.24091871 5.0370068 -14.12046899 5.01907078 -16 5 C-16.33 3.68 -16.66 2.36 -17 1 C-11.72 1.33 -6.44 1.66 -1 2 C-0.67 1.34 -0.34 0.68 0 0 Z " fill="currentColor" transform="translate(170,423)"/>
<path d="M0 0 C2.54080889 2.9826887 3.2802322 5.19551307 4 9 C4.66 9.33 5.32 9.66 6 10 C6 11.65 6 13.3 6 15 C6.66 15 7.32 15 8 15 C9.38938077 16.96147874 10.7260411 18.96166576 12 21 C9.83125748 20.49396008 8.00032373 20.00016187 6 19 C2.46497684 13.21416132 -0.40404584 6.86877922 0 0 Z " fill="currentColor" transform="translate(296,438)"/>
<path d="M0 0 C1.65 0 3.3 0 5 0 C5.33 0.66 5.66 1.32 6 2 C8.02463255 2.65213292 8.02463255 2.65213292 10 3 C10.33 4.32 10.66 5.64 11 7 C11.66 7 12.32 7 13 7 C13 8.32 13 9.64 13 11 C13.66 11 14.32 11 15 11 C15 11.99 15 12.98 15 14 C14.34 14 13.68 14 13 14 C13 13.34 13 12.68 13 12 C12.34 12 11.68 12 11 12 C10.67 10.68 10.34 9.36 10 8 C9.34 8 8.68 8 8 8 C8 7.01 8 6.02 8 5 C7.01 5 6.02 5 5 5 C5 4.34 5 3.68 5 3 C3.35 2.67 1.7 2.34 0 2 C0 1.34 0 0.68 0 0 Z " fill="currentColor" transform="translate(458,362)"/>
<path d="M0 0 C2.475 0.495 2.475 0.495 5 1 C5 1.66 5 2.32 5 3 C6.60875 2.9071875 6.60875 2.9071875 8.25 2.8125 C12.08945057 3.00447253 13.38618481 3.28163221 16 6 C16 6.66 16 7.32 16 8 C13.36 8 10.72 8 8 8 C7.67 7.34 7.34 6.68 7 6 C6.01 5.67 5.02 5.34 4 5 C4 4.34 4 3.68 4 3 C2.68 2.67 1.36 2.34 0 2 C0 1.34 0 0.68 0 0 Z " fill="currentColor" transform="translate(462,457)"/>
<path d="M0 0 C0.99 0.33 1.98 0.66 3 1 C3 6.28 3 11.56 3 17 C2.01 17 1.02 17 0 17 C0 11.39 0 5.78 0 0 Z " fill="currentColor" transform="translate(352,433)"/>
<path d="M0 0 C1.65 0.33 3.3 0.66 5 1 C3.68 1.33 2.36 1.66 1 2 C1 2.66 1 3.32 1 4 C-1.31 4.33 -3.62 4.66 -6 5 C-6 5.66 -6 6.32 -6 7 C-8.64 7 -11.28 7 -14 7 C-14 6.34 -14 5.68 -14 5 C-9.07015675 2.96006486 -5.42039575 1.59347032 0 2 C0 1.34 0 0.68 0 0 Z " fill="currentColor" transform="translate(446,424)"/>
<path d="M0 0 C0.66 0 1.32 0 2 0 C2.33 2.64 2.66 5.28 3 8 C3.33 8 3.66 8 4 8 C4 11.96 4 15.92 4 20 C3.34 20 2.68 20 2 20 C-0.46254726 13.38190423 -0.18935472 6.99560484 0 0 Z " fill="currentColor" transform="translate(224,408)"/>
<path d="M0 0 C0.66 0 1.32 0 2 0 C2 2.64 2 5.28 2 8 C1.01 8 0.02 8 -1 8 C-1.33 8.99 -1.66 9.98 -2 11 C-4.64 11 -7.28 11 -10 11 C-10 10.34 -10 9.68 -10 9 C-6.535 8.505 -6.535 8.505 -3 8 C-2.690625 7.05125 -2.38125 6.1025 -2.0625 5.125 C-1 2 -1 2 0 0 Z " fill="currentColor" transform="translate(243,407)"/>
<path d="M0 0 C0 0.99 0 1.98 0 3 C-1.32 3.33 -2.64 3.66 -4 4 C-4.33 8.62 -4.66 13.24 -5 18 C-5.66 18 -6.32 18 -7 18 C-7 13.05 -7 8.1 -7 3 C-6.34 3 -5.68 3 -5 3 C-5 2.34 -5 1.68 -5 1 C-2 0 -2 0 0 0 Z " fill="currentColor" transform="translate(355,346)"/>
<path d="M0 0 C0.33 0 0.66 0 1 0 C1 2.31 1 4.62 1 7 C4.3 6.34 7.6 5.68 11 5 C11.33 6.32 11.66 7.64 12 9 C9.36 9 6.72 9 4 9 C4 9.66 4 10.32 4 11 C0.125 9.125 0.125 9.125 -1 8 C-1.125 4.5 -1.125 4.5 -1 1 C-0.67 0.67 -0.34 0.34 0 0 Z " fill="currentColor" transform="translate(289,404)"/>
<path d="M0 0 C0.66 0 1.32 0 2 0 C2 2.31 2 4.62 2 7 C2.66 7 3.32 7 4 7 C3.33333333 10.33333333 2.66666667 13.66666667 2 17 C0.68 17.33 -0.64 17.66 -2 18 C-1.505 16.515 -1.505 16.515 -1 15 C-0.77281504 12.43365139 -0.58391816 9.88321893 -0.4375 7.3125 C-0.39431641 6.61060547 -0.35113281 5.90871094 -0.30664062 5.18554688 C-0.2008264 3.45724794 -0.09993419 1.7286489 0 0 Z " fill="currentColor" transform="translate(354,456)"/>
<path d="M0 0 C0 3 0 3 -1.14453125 4.67578125 C-3.72620145 6.51827851 -5.55242989 6.29814953 -8.6875 6.1875 C-9.68136719 6.16042969 -10.67523438 6.13335937 -11.69921875 6.10546875 C-12.45847656 6.07066406 -13.21773438 6.03585937 -14 6 C-14 5.01 -14 4.02 -14 3 C-11.03 3 -8.06 3 -5 3 C-5 2.34 -5 1.68 -5 1 C-2 0 -2 0 0 0 Z " fill="currentColor" transform="translate(316,405)"/>
<path d="M0 0 C0.66 0 1.32 0 2 0 C2 1.32 2 2.64 2 4 C2.66 4 3.32 4 4 4 C4.33 7.96 4.66 11.92 5 16 C4.01 16 3.02 16 2 16 C0.13216954 10.51324804 -0.2358396 5.77807024 0 0 Z " fill="currentColor" transform="translate(219,390)"/>
<path d="M0 0 C0.66 0 1.32 0 2 0 C2.125 2.375 2.125 2.375 2 5 C1.34 5.66 0.68 6.32 0 7 C-0.88778692 8.96488831 -0.88778692 8.96488831 -1.625 11.125 C-1.88539063 11.84945313 -2.14578125 12.57390625 -2.4140625 13.3203125 C-2.60742188 13.87460937 -2.80078125 14.42890625 -3 15 C-3.66 15 -4.32 15 -5 15 C-5 12.36 -5 9.72 -5 7 C-4.34 7 -3.68 7 -3 7 C-3 5.68 -3 4.36 -3 3 C-2.01 3 -1.02 3 0 3 C0 2.01 0 1.02 0 0 Z " fill="currentColor" transform="translate(558,382)"/>
<path d="M0 0 C0.99 0.33 1.98 0.66 3 1 C2.01 2.485 2.01 2.485 1 4 C0.34 4 -0.32 4 -1 4 C-1 4.99 -1 5.98 -1 7 C-5.22222222 10 -5.22222222 10 -8 10 C-8 10.66 -8 11.32 -8 12 C-9.65 12 -11.3 12 -13 12 C-13 11.01 -13 10.02 -13 9 C-10.09399739 7.74335022 -8.20395416 7 -5 7 C-5 6.34 -5 5.68 -5 5 C-3.37446717 3.29319053 -1.70884005 1.62339805 0 0 Z " fill="currentColor" transform="translate(792,429)"/>
<path d="M0 0 C2.64 0 5.28 0 8 0 C8 0.66 8 1.32 8 2 C6.35 2 4.7 2 3 2 C3 2.66 3 3.32 3 4 C2.34 4 1.68 4 1 4 C1 5.98 1 7.96 1 10 C0.01 10 -0.98 10 -2 10 C-2 7.36 -2 4.72 -2 2 C-1.34 2 -0.68 2 0 2 C0 1.34 0 0.68 0 0 Z " fill="currentColor" transform="translate(603,416)"/>
<path d="M0 0 C2.86207152 1.28299758 5.0245088 2.530636 7 5 C7 5.99 7 6.98 7 8 C7.66 8 8.32 8 9 8 C9.66 9.65 10.32 11.3 11 13 C9.68 13.33 8.36 13.66 7 14 C7 12.68 7 11.36 7 10 C6.34 10 5.68 10 5 10 C4.67 9.01 4.34 8.02 4 7 C3.34 6.67 2.68 6.34 2 6 C2 5.01 2 4.02 2 3 C1.34 3 0.68 3 0 3 C0 2.01 0 1.02 0 0 Z " fill="currentColor" transform="translate(472,357)"/>
<path d="M0 0 C1.32 0.99 2.64 1.98 4 3 C4.390625 5.91796875 4.390625 5.91796875 4.25 9.1875 C4.21390625 10.27417969 4.1778125 11.36085938 4.140625 12.48046875 C4.09421875 13.31191406 4.0478125 14.14335937 4 15 C3.525625 14.505 3.05125 14.01 2.5625 13.5 C1.24076302 11.88457803 1.24076302 11.88457803 0 12 C0 8.04 0 4.08 0 0 Z " fill="currentColor" transform="translate(633,441)"/>
<path d="M0 0 C0.78375 0.04125 1.5675 0.0825 2.375 0.125 C2.375 0.785 2.375 1.445 2.375 2.125 C1.385 2.455 0.395 2.785 -0.625 3.125 C-0.295 5.765 0.035 8.405 0.375 11.125 C-0.615 11.125 -1.605 11.125 -2.625 11.125 C-2.625 9.805 -2.625 8.485 -2.625 7.125 C-3.285 7.125 -3.945 7.125 -4.625 7.125 C-4.75 4.75 -4.75 4.75 -4.625 2.125 C-2.625 0.125 -2.625 0.125 0 0 Z " fill="currentColor" transform="translate(294.625,421.875)"/>
<path d="M0 0 C1.41750563 0.11509661 2.83401169 0.24253658 4.25 0.375 C5.03890625 0.44460938 5.8278125 0.51421875 6.640625 0.5859375 C9.14478952 1.02541008 10.86957156 1.61427885 13 3 C13.33 3.99 13.66 4.98 14 6 C11.36 6 8.72 6 6 6 C6 5.01 6 4.02 6 3 C4.02 3 2.04 3 0 3 C0 2.01 0 1.02 0 0 Z " fill="currentColor" transform="translate(449,346)"/>
<path d="M0 0 C4.16138263 -0.08159574 7.9472484 0.01751476 12 1 C12 2.32 12 3.64 12 5 C9.69 5 7.38 5 5 5 C4.67 4.34 4.34 3.68 4 3 C1.97536745 2.34786708 1.97536745 2.34786708 0 2 C0 1.34 0 0.68 0 0 Z " fill="currentColor" transform="translate(583,468)"/>
<path d="M0 0 C1.32 0 2.64 0 4 0 C4 0.66 4 1.32 4 2 C3.01 2 2.02 2 1 2 C1 2.99 1 3.98 1 5 C-3.455 5.495 -3.455 5.495 -8 6 C-8 4.68 -8 3.36 -8 2 C-6.865625 1.855625 -5.73125 1.71125 -4.5625 1.5625 C-1.19222799 1.38828522 -1.19222799 1.38828522 0 0 Z " fill="currentColor" transform="translate(773,441)"/>
<path d="M0 0 C2.10388569 -0.05402274 4.20816714 -0.09280256 6.3125 -0.125 C8.07013672 -0.15980469 8.07013672 -0.15980469 9.86328125 -0.1953125 C13 0 13 0 16 2 C16 2.66 16 3.32 16 4 C13.69 4 11.38 4 9 4 C9 3.67 9 3.34 9 3 C5.7 2.67 2.4 2.34 -1 2 C-0.67 1.34 -0.34 0.68 0 0 Z " fill="currentColor" transform="translate(442,358)"/>
<path d="M0 0 C0.99 0 1.98 0 3 0 C2.67 1.32 2.34 2.64 2 4 C-1.07617188 4.29296875 -1.07617188 4.29296875 -4.15234375 4.5859375 C-4.76207031 4.72257812 -5.37179687 4.85921875 -6 5 C-6.33 5.66 -6.66 6.32 -7 7 C-9.0625 7.625 -9.0625 7.625 -11 8 C-11 6.68 -11 5.36 -11 4 C-9.68 4 -8.36 4 -7 4 C-7 3.34 -7 2.68 -7 2 C-4.69 2 -2.38 2 0 2 C0 1.34 0 0.68 0 0 Z " fill="currentColor" transform="translate(515,466)"/>
<path d="M0 0 C1.32 0 2.64 0 4 0 C4 3.3 4 6.6 4 10 C2.68 10 1.36 10 0 10 C0 6.7 0 3.4 0 0 Z " fill="currentColor" transform="translate(393,462)"/>
<path d="M0 0 C5.28 0 10.56 0 16 0 C16 0.99 16 1.98 16 3 C10.72 2.67 5.44 2.34 0 2 C0 1.34 0 0.68 0 0 Z " fill="currentColor" transform="translate(108,429)"/>
<path d="M0 0 C0.33 0 0.66 0 1 0 C1 4.95 1 9.9 1 15 C0.34 15 -0.32 15 -1 15 C-1 17.31 -1 19.62 -1 22 C-1.99 22 -2.98 22 -4 22 C-4.1875 19.1875 -4.1875 19.1875 -4 16 C-3.5153125 15.5771875 -3.030625 15.154375 -2.53125 14.71875 C-0.21777021 12.12198696 -0.48133073 9.72288074 -0.3125 6.3125 C-0.21388672 4.54326172 -0.21388672 4.54326172 -0.11328125 2.73828125 C-0.07589844 1.83464844 -0.03851563 0.93101562 0 0 Z " fill="currentColor" transform="translate(401,384)"/>
<path d="M0 0 C0.66 0 1.32 0 2 0 C4.21854707 4.62197306 5.38281159 7.76824163 5 13 C4.01 13 3.02 13 2 13 C2 10.36 2 7.72 2 5 C1.34 5 0.68 5 0 5 C0 3.35 0 1.7 0 0 Z " fill="currentColor" transform="translate(639,418)"/>
<path d="M0 0 C0.33 0 0.66 0 1 0 C3.42857143 8.42857143 3.42857143 8.42857143 2 13 C1.01 13 0.02 13 -1 13 C-1.02686553 11.02090602 -1.04633375 9.04171029 -1.0625 7.0625 C-1.07410156 5.96035156 -1.08570313 4.85820312 -1.09765625 3.72265625 C-1 1 -1 1 0 0 Z " fill="currentColor" transform="translate(286,390)"/>
<path d="M0 0 C0.66 0 1.32 0 2 0 C2 4.29 2 8.58 2 13 C1.01 13 0.02 13 -1 13 C-1.02708567 11.39592672 -1.04643483 9.7917215 -1.0625 8.1875 C-1.07410156 7.29417969 -1.08570313 6.40085937 -1.09765625 5.48046875 C-1 3 -1 3 0 0 Z " fill="currentColor" transform="translate(626,395)"/>
<path d="M0 0 C0.66 0 1.32 0 2 0 C1.67 1.65 1.34 3.3 1 5 C-2.3 5 -5.6 5 -9 5 C-9.33 3.68 -9.66 2.36 -10 1 C-9.01 1 -8.02 1 -7 1 C-7 1.66 -7 2.32 -7 3 C-3.20452079 2.03223902 -3.20452079 2.03223902 0 0 Z " fill="currentColor" transform="translate(234,460)"/>
<path d="M0 0 C0.66 0 1.32 0 2 0 C2 4.29 2 8.58 2 13 C1.01 13 0.02 13 -1 13 C-1.0272415 11.58344207 -1.04650467 10.16672955 -1.0625 8.75 C-1.07410156 7.96109375 -1.08570313 7.1721875 -1.09765625 6.359375 C-1.00385306 4.09308998 -0.63241063 2.1711105 0 0 Z " fill="currentColor" transform="translate(621,432)"/>
<path d="M0 0 C0.99 0 1.98 0 3 0 C3.0272415 1.41655793 3.04650467 2.83327045 3.0625 4.25 C3.07410156 5.03890625 3.08570313 5.8278125 3.09765625 6.640625 C3.00385306 8.90691002 2.63241063 10.8288895 2 13 C1.34 13 0.68 13 0 13 C0 8.71 0 4.42 0 0 Z " fill="currentColor" transform="translate(357,382)"/>
<path d="M0 0 C0.66 0 1.32 0 2 0 C2.2519555 3.02346601 2.20421041 4.6402007 0.6875 7.3125 C0.130625 7.869375 -0.42625 8.42625 -1 9 C-1.99 9 -2.98 9 -4 9 C-6.1519437 5.77208445 -6.20086443 4.71599191 -6 1 C-5.01 1.495 -5.01 1.495 -4 2 C-3.67 2.99 -3.34 3.98 -3 5 C-2.34 5.33 -1.68 5.66 -1 6 C-0.67 4.02 -0.34 2.04 0 0 Z " fill="currentColor" transform="translate(594,451)"/>
<path d="M0 0 C0 2.97 0 5.94 0 9 C-2.475 8.01 -2.475 8.01 -5 7 C-5 5.02 -5 3.04 -5 1 C-2 0 -2 0 0 0 Z " fill="currentColor" transform="translate(235,418)"/>
<path d="M0 0 C0.33 0 0.66 0 1 0 C1 5.28 1 10.56 1 16 C0.01 16 -0.98 16 -2 16 C-1.85975781 13.52039864 -1.7130815 11.04147598 -1.5625 8.5625 C-1.52318359 7.85544922 -1.48386719 7.14839844 -1.44335938 6.41992188 C-1.11328125 1.11328125 -1.11328125 1.11328125 0 0 Z " fill="currentColor" transform="translate(624,410)"/>
<path d="M0 0 C0.99 0 1.98 0 3 0 C3.33 3.96 3.66 7.92 4 12 C3.01 11.67 2.02 11.34 1 11 C-0.20272819 8.59454362 -0.10071472 7.05003047 -0.0625 4.375 C-0.05347656 3.55773437 -0.04445313 2.74046875 -0.03515625 1.8984375 C-0.02355469 1.27195312 -0.01195312 0.64546875 0 0 Z " fill="currentColor" transform="translate(564,393)"/>
<path d="M0 0 C1.65 0 3.3 0 5 0 C5 0.66 5 1.32 5 2 C4.01 2.33 3.02 2.66 2 3 C1.67 3.66 1.34 4.32 1 5 C-1.31 5 -3.62 5 -6 5 C-6 4.01 -6 3.02 -6 2 C-4.02 2 -2.04 2 0 2 C0 1.34 0 0.68 0 0 Z " fill="currentColor" transform="translate(318,414)"/>
<path d="M0 0 C3.1875 0.875 3.1875 0.875 6 2 C6.33 3.65 6.66 5.3 7 7 C6.01 7 5.02 7 4 7 C4 6.01 4 5.02 4 4 C1.69 4 -0.62 4 -3 4 C-3 3.34 -3 2.68 -3 2 C-2.01 1.34 -1.02 0.68 0 0 Z " fill="currentColor" transform="translate(185,404)"/>
<path d="M0 0 C2.0625 0.4375 2.0625 0.4375 4 1 C4 2.98 4 4.96 4 7 C3.34 6.67 2.68 6.34 2 6 C2 4.68 2 3.36 2 2 C1.34 2 0.68 2 0 2 C0 4.97 0 7.94 0 11 C-1.98 11 -3.96 11 -6 11 C-6 10.67 -6 10.34 -6 10 C-4.35 10 -2.7 10 -1 10 C-1.01160156 9.36191406 -1.02320313 8.72382813 -1.03515625 8.06640625 C-1.04417969 7.24011719 -1.05320312 6.41382813 -1.0625 5.5625 C-1.07410156 4.73878906 -1.08570313 3.91507812 -1.09765625 3.06640625 C-1 1 -1 1 0 0 Z " fill="currentColor" transform="translate(622,492)"/>
<path d="M0 0 C2.64 0 5.28 0 8 0 C8 1.32 8 2.64 8 4 C5.69 4 3.38 4 1 4 C0.67 2.68 0.34 1.36 0 0 Z " fill="currentColor" transform="translate(584,431)"/>
<path d="M0 0 C4.29 0.33 8.58 0.66 13 1 C12.67 1.99 12.34 2.98 12 4 C6.06 3.01 6.06 3.01 0 2 C0 1.34 0 0.68 0 0 Z " fill="currentColor" transform="translate(128,431)"/>
<path d="M0 0 C0 2.31 0 4.62 0 7 C-0.99 7 -1.98 7 -3 7 C-3 7.99 -3 8.98 -3 10 C-3.66 10 -4.32 10 -5 10 C-5.25 6.6875 -5.25 6.6875 -5 3 C-2 0 -2 0 0 0 Z " fill="currentColor" transform="translate(562,348)"/>
<path d="M0 0 C0.66 0 1.32 0 2 0 C2 1.32 2 2.64 2 4 C4.31 4 6.62 4 9 4 C9.33 3.34 9.66 2.68 10 2 C10 3.32 10 4.64 10 6 C6.7 6 3.4 6 0 6 C0 4.02 0 2.04 0 0 Z " fill="currentColor" transform="translate(638,464)"/>
<path d="M0 0 C1.21236328 0.01353516 1.21236328 0.01353516 2.44921875 0.02734375 C3.37154297 0.04474609 3.37154297 0.04474609 4.3125 0.0625 C4.3125 1.3825 4.3125 2.7025 4.3125 4.0625 C3.6525 4.0625 2.9925 4.0625 2.3125 4.0625 C2.3125 3.4025 2.3125 2.7425 2.3125 2.0625 C0.0025 2.7225 -2.3075 3.3825 -4.6875 4.0625 C-4.6875 3.4025 -4.6875 2.7425 -4.6875 2.0625 C-5.6775 1.7325 -6.6675 1.4025 -7.6875 1.0625 C-4.80538698 0.10179566 -2.98899956 -0.04331883 0 0 Z " fill="currentColor" transform="translate(312.6875,457.9375)"/>
<path d="M0 0 C0.33 1.32 0.66 2.64 1 4 C0.360625 4.12375 -0.27875 4.2475 -0.9375 4.375 C-1.9584375 4.684375 -1.9584375 4.684375 -3 5 C-3.33 5.66 -3.66 6.32 -4 7 C-5.65 7 -7.3 7 -9 7 C-9 6.01 -9 5.02 -9 4 C-7.68 4 -6.36 4 -5 4 C-5 3.34 -5 2.68 -5 2 C-3.35 1.34 -1.7 0.68 0 0 Z " fill="currentColor" transform="translate(461,417)"/>
<path d="M0 0 C-0.639375 0.28875 -1.27875 0.5775 -1.9375 0.875 C-4.15206079 1.82823451 -4.15206079 1.82823451 -5 4 C-6.98 4 -8.96 4 -11 4 C-10.67 2.68 -10.34 1.36 -10 0 C-6.33694766 -0.74926071 -3.57644848 -1.2380014 0 0 Z " fill="currentColor" transform="translate(397,368)"/>
<path d="M0 0 C0.66 0 1.32 0 2 0 C2.28571429 7.42857143 2.28571429 7.42857143 0 11 C-0.66 11 -1.32 11 -2 11 C-2.25 3.375 -2.25 3.375 0 0 Z " fill="currentColor" transform="translate(262,358)"/>
<path d="M0 0 C0.66 0 1.32 0 2 0 C2.33 1.65 2.66 3.3 3 5 C3.66 4.67 4.32 4.34 5 4 C4.67 5.32 4.34 6.64 4 8 C2.35 7.67 0.7 7.34 -1 7 C-1.04254356 5.00045254 -1.04080783 2.99958364 -1 1 C-0.67 0.67 -0.34 0.34 0 0 Z " fill="currentColor" transform="translate(229,429)"/>
<path d="M0 0 C0.99 0 1.98 0 3 0 C2.67 1.65 2.34 3.3 2 5 C1.34 5 0.68 5 0 5 C0 6.32 0 7.64 0 9 C-0.99 8.67 -1.98 8.34 -3 8 C-2.45276317 4.62537285 -1.9451 2.91765 0 0 Z " fill="currentColor" transform="translate(548,404)"/>
<path d="M0 0 C1.98 0 3.96 0 6 0 C6 0.66 6 1.32 6 2 C7.65 2 9.3 2 11 2 C11 2.66 11 3.32 11 4 C8.36 4 5.72 4 3 4 C3 3.34 3 2.68 3 2 C2.01 2 1.02 2 0 2 C0 1.34 0 0.68 0 0 Z " fill="currentColor" transform="translate(463,471)"/>
<path d="M0 0 C1.32 0 2.64 0 4 0 C4 0.66 4 1.32 4 2 C3.34 2 2.68 2 2 2 C1.67 7.28 1.34 12.56 1 18 C0.67 18 0.34 18 0 18 C0 12.06 0 6.12 0 0 Z " fill="currentColor" transform="translate(626,453)"/>
<path d="M0 0 C0.99 0 1.98 0 3 0 C2.67 1.65 2.34 3.3 2 5 C1.34 5 0.68 5 0 5 C-0.33 7.31 -0.66 9.62 -1 12 C-1.33 12 -1.66 12 -2 12 C-2.05422947 10.5629191 -2.09289723 9.12524538 -2.125 7.6875 C-2.14820313 6.88699219 -2.17140625 6.08648437 -2.1953125 5.26171875 C-2 3 -2 3 0 0 Z " fill="currentColor" transform="translate(241,439)"/>
<path d="M0 0 C3.96 0 7.92 0 12 0 C12 0.99 12 1.98 12 3 C8.04 2.67 4.08 2.34 0 2 C0 1.34 0 0.68 0 0 Z " fill="currentColor" transform="translate(143,434)"/>
<path d="M0 0 C2.6875 0.3125 2.6875 0.3125 5 1 C5 2.65 5 4.3 5 6 C4.34 6 3.68 6 3 6 C2.67 5.01 2.34 4.02 2 3 C1.67 3.66 1.34 4.32 1 5 C-0.32 4.34 -1.64 3.68 -3 3 C-1.8125 1.4375 -1.8125 1.4375 0 0 Z " fill="currentColor" transform="translate(183,426)"/>
<path d="M0 0 C3.3 0 6.6 0 10 0 C10 0.99 10 1.98 10 3 C2.25 3.125 2.25 3.125 0 2 C0 1.34 0 0.68 0 0 Z " fill="currentColor" transform="translate(95,427)"/>
<path d="M0 0 C0.99 0 1.98 0 3 0 C3.125 2.375 3.125 2.375 3 5 C2.34 5.66 1.68 6.32 1 7 C1.33 7.66 1.66 8.32 2 9 C0.68 9 -0.64 9 -2 9 C-2 7.68 -2 6.36 -2 5 C-1.34 5 -0.68 5 0 5 C0 3.35 0 1.7 0 0 Z " fill="currentColor" transform="translate(540,420)"/>
<path d="M0 0 C0.99 0 1.98 0 3 0 C2.67 3.63 2.34 7.26 2 11 C1.34 11 0.68 11 0 11 C0 7.37 0 3.74 0 0 Z " fill="currentColor" transform="translate(624,473)"/>
<path d="M0 0 C3.78527521 0.51152368 5.44108688 1.20845842 8 4 C8.99 4.33 9.98 4.66 11 5 C11 5.66 11 6.32 11 7 C9.35 6.67 7.7 6.34 6 6 C6 5.34 6 4.68 6 4 C5.01 4 4.02 4 3 4 C3 3.34 3 2.68 3 2 C2.01 2 1.02 2 0 2 C0 1.34 0 0.68 0 0 Z " fill="currentColor" transform="translate(414,439)"/>
<path d="M0 0 C3.96 0.33 7.92 0.66 12 1 C12 1.66 12 2.32 12 3 C8.04 3 4.08 3 0 3 C0 2.01 0 1.02 0 0 Z " fill="currentColor" transform="translate(697,432)"/>
<path d="M0 0 C0.66 0 1.32 0 2 0 C4.4294516 3.6441774 4.16179575 5.71241272 4 10 C3.34 10 2.68 10 2 10 C2 9.01 2 8.02 2 7 C1.34 7 0.68 7 0 7 C0 4.69 0 2.38 0 0 Z " fill="currentColor" transform="translate(192,415)"/>
<path d="M0 0 C1.32 0 2.64 0 4 0 C4 2.97 4 5.94 4 9 C3.34 9 2.68 9 2 9 C1.34 6.03 0.68 3.06 0 0 Z " fill="currentColor" transform="translate(273,382)"/>
<path d="M0 0 C2.31 0 4.62 0 7 0 C7 0.66 7 1.32 7 2 C5.35 1.67 3.7 1.34 2 1 C2 1.99 2 2.98 2 4 C1.01 4 0.02 4 -1 4 C-1 4.99 -1 5.98 -1 7 C-1.66 7 -2.32 7 -3 7 C-3 5.35 -3 3.7 -3 2 C-2.34 2 -1.68 2 -1 2 C-0.67 1.34 -0.34 0.68 0 0 Z " fill="currentColor" transform="translate(270,340)"/>
<path d="M0 0 C-0.99 0.33 -1.98 0.66 -3 1 C-3 1.66 -3 2.32 -3 3 C-5.64 3 -8.28 3 -11 3 C-7.79596591 -1.80605113 -5.23274949 -1.0465499 0 0 Z " fill="currentColor" transform="translate(670,438)"/>
<path d="M0 0 C1.32 0.33 2.64 0.66 4 1 C3.34 3.97 2.68 6.94 2 10 C0.68 10.33 -0.64 10.66 -2 11 C-1.34 10.34 -0.68 9.68 0 9 C0.24253813 6.78927023 0.24253813 6.78927023 0.125 4.375 C0.10695312 3.55773437 0.08890625 2.74046875 0.0703125 1.8984375 C0.04710937 1.27195312 0.02390625 0.64546875 0 0 Z " fill="currentColor" transform="translate(233,427)"/>
<path d="M0 0 C5.28 0.66 10.56 1.32 16 2 C16 2.33 16 2.66 16 3 C10.72 3 5.44 3 0 3 C0 2.01 0 1.02 0 0 Z " fill="currentColor" transform="translate(153,424)"/>
<path d="M0 0 C0.33 0.66 0.66 1.32 1 2 C1.99 2.33 2.98 2.66 4 3 C4 6.3 4 9.6 4 13 C3.34 13 2.68 13 2 13 C1.93941406 12.39671875 1.87882813 11.7934375 1.81640625 11.171875 C1.69072266 9.97304688 1.69072266 9.97304688 1.5625 8.75 C1.48128906 7.96109375 1.40007813 7.1721875 1.31640625 6.359375 C1.02365007 4.17635361 0.57935581 2.1226818 0 0 Z " fill="currentColor" transform="translate(635,392)"/>
<path d="M0 0 C0.66 0 1.32 0 2 0 C2 3.3 2 6.6 2 10 C1.34 10 0.68 10 0 10 C-0.19412181 8.52168779 -0.38012131 7.04230684 -0.5625 5.5625 C-0.66691406 4.73878906 -0.77132812 3.91507812 -0.87890625 3.06640625 C-0.91886719 2.38449219 -0.95882812 1.70257813 -1 1 C-0.67 0.67 -0.34 0.34 0 0 Z " fill="currentColor" transform="translate(564,383)"/>
<path d="M0 0 C0.99 0 1.98 0 3 0 C3 1.65 3 3.3 3 5 C2.01 5.495 2.01 5.495 1 6 C0.67 6.99 0.34 7.98 0 9 C-0.66 9 -1.32 9 -2 9 C-2 7.35 -2 5.7 -2 4 C-1.34 4 -0.68 4 0 4 C0 2.68 0 1.36 0 0 Z " fill="currentColor" transform="translate(265,379)"/>
<path d="M0 0 C0.20140476 3.62528568 -0.14223235 5.86501708 -2 9 C-2.66 9 -3.32 9 -4 9 C-4 6.36 -4 3.72 -4 1 C-2 0 -2 0 0 0 Z " fill="currentColor" transform="translate(269,347)"/>
<path d="M0 0 C1.32 0.33 2.64 0.66 4 1 C4 1.99 4 2.98 4 4 C4.99 4 5.98 4 7 4 C7 4.66 7 5.32 7 6 C7.66 6 8.32 6 9 6 C9 6.66 9 7.32 9 8 C4.75153925 7.52794881 2.73180712 5.11122478 0 2 C0 1.34 0 0.68 0 0 Z " fill="currentColor" transform="translate(433,437)"/>
<path d="M0 0 C3.3 0.33 6.6 0.66 10 1 C10 1.66 10 2.32 10 3 C6.37 3 2.74 3 -1 3 C-0.67 2.01 -0.34 1.02 0 0 Z " fill="currentColor" transform="translate(711,434)"/>
<path d="M0 0 C2.64 0 5.28 0 8 0 C8 0.66 8 1.32 8 2 C9.65 2 11.3 2 13 2 C11.68 2.33 10.36 2.66 9 3 C9 3.66 9 4.32 9 5 C6.69 5 4.38 5 2 5 C2.639375 4.71125 3.27875 4.4225 3.9375 4.125 C6.15206079 3.17176549 6.15206079 3.17176549 7 1 C4.69 1 2.38 1 0 1 C0 0.67 0 0.34 0 0 Z " fill="currentColor" transform="translate(134,431)"/>
<path d="M0 0 C3.96 0 7.92 0 12 0 C11.67 0.66 11.34 1.32 11 2 C8.71484375 2.4140625 8.71484375 2.4140625 5.9375 2.625 C4.55884766 2.73714844 4.55884766 2.73714844 3.15234375 2.8515625 C2.44207031 2.90054687 1.73179688 2.94953125 1 3 C0.67 2.01 0.34 1.02 0 0 Z " fill="currentColor" transform="translate(61,429)"/>
<path d="M0 0 C0.99 0 1.98 0 3 0 C3 2.97 3 5.94 3 9 C2.34 9 1.68 9 1 9 C-0.4783226 6.04335481 -0.06032783 3.25770263 0 0 Z " fill="currentColor" transform="translate(217,422)"/>
<path d="M0 0 C1.65 0.33 3.3 0.66 5 1 C3.68 1.33 2.36 1.66 1 2 C1 2.66 1 3.32 1 4 C-1.31 4.33 -3.62 4.66 -6 5 C-6 4.01 -6 3.02 -6 2 C-4.02 2 -2.04 2 0 2 C0 1.34 0 0.68 0 0 Z " fill="currentColor" transform="translate(446,424)"/>
<path d="M0 0 C2.97 0 5.94 0 9 0 C9.33 0.66 9.66 1.32 10 2 C6.7 2.33 3.4 2.66 0 3 C0 2.01 0 1.02 0 0 Z " fill="currentColor" transform="translate(66,418)"/>
<path d="M0 0 C0.66 0 1.32 0 2 0 C2.33 1.32 2.66 2.64 3 4 C4.65 4 6.3 4 8 4 C8 4.99 8 5.98 8 7 C5.6875 7.25 5.6875 7.25 3 7 C1.1875 5.1875 1.1875 5.1875 0 3 C0 2.01 0 1.02 0 0 Z " fill="currentColor" transform="translate(613,500)"/>
<path d="M0 0 C1.32 0 2.64 0 4 0 C7 3.21428571 7 3.21428571 7 6 C7.99 6.33 8.98 6.66 10 7 C8.68 7 7.36 7 6 7 C4 5 4 5 3 3 C2.01 3 1.02 3 0 3 C0 2.01 0 1.02 0 0 Z " fill="currentColor" transform="translate(434,453)"/>
<path d="M0 0 C2.92540704 0.62687294 5.4835249 1.35127493 8 3 C8.75 5.125 8.75 5.125 9 7 C8.01 7 7.02 7 6 7 C6 6.34 6 5.68 6 5 C5.01 5 4.02 5 3 5 C3 4.01 3 3.02 3 2 C2.01 1.67 1.02 1.34 0 1 C0 0.67 0 0.34 0 0 Z " fill="currentColor" transform="translate(442,445)"/>
<path d="M0 0 C2.13586678 3.20380017 2.23132175 4.01939967 2.125 7.6875 C2.10695313 8.49574219 2.08890625 9.30398438 2.0703125 10.13671875 C2.03550781 11.05904297 2.03550781 11.05904297 2 12 C1.34 12 0.68 12 0 12 C-0.144375 10.88625 -0.28875 9.7725 -0.4375 8.625 C-0.78372035 5.17857953 -0.78372035 5.17857953 -2 3 C-1.34 3 -0.68 3 0 3 C0 2.01 0 1.02 0 0 Z " fill="currentColor" transform="translate(284,434)"/>
<path d="M0 0 C1.21236328 0.04060547 1.21236328 0.04060547 2.44921875 0.08203125 C3.06410156 0.11683594 3.67898438 0.15164063 4.3125 0.1875 C3.714375 0.47625 3.11625 0.765 2.5 1.0625 C0.11922208 2.23492026 0.11922208 2.23492026 -2.6875 4.1875 C-5.375 3.8125 -5.375 3.8125 -7.6875 3.1875 C-5.26849268 0.20484049 -3.789448 -0.16475861 0 0 Z " fill="currentColor" transform="translate(767.6875,432.8125)"/>
<path d="M0 0 C1.32 0 2.64 0 4 0 C4 3.63 4 7.26 4 11 C3.34 11 2.68 11 2 11 C0.80712589 7.12315913 0 4.08378077 0 0 Z " fill="currentColor" transform="translate(293,433)"/>
<path d="M0 0 C0 0.99 0 1.98 0 3 C-3.08809695 4.76462683 -4.23312136 5 -8 5 C-8 3 -8 3 -6.8125 1.375 C-4.44439338 -0.42149467 -2.90102749 -0.23521845 0 0 Z " fill="currentColor" transform="translate(458,408)"/>
<path d="M0 0 C0.99 0 1.98 0 3 0 C3 2.64 3 5.28 3 8 C2.34 8 1.68 8 1 8 C0.34 7.34 -0.32 6.68 -1 6 C-0.625 2.875 -0.625 2.875 0 0 Z " fill="currentColor" transform="translate(605,453)"/>
<path d="M0 0 C0.99 0.33 1.98 0.66 3 1 C3 3.31 3 5.62 3 8 C2.01 8.33 1.02 8.66 0 9 C0 6.03 0 3.06 0 0 Z " fill="currentColor" transform="translate(572,441)"/>
<path d="M0 0 C0.33 0 0.66 0 1 0 C1 4.29 1 8.58 1 13 C0.01 13 -0.98 13 -2 13 C-1.34 8.71 -0.68 4.42 0 0 Z " fill="currentColor" transform="translate(346,391)"/>
<path d="M0 0 C0.66 0 1.32 0 2 0 C2.33 3.3 2.66 6.6 3 10 C2.67 8.68 2.34 7.36 2 6 C1.01 6 0.02 6 -1 6 C-1.042721 4.33388095 -1.04063832 2.66617115 -1 1 C-0.67 0.67 -0.34 0.34 0 0 Z " fill="currentColor" transform="translate(638,458)"/>
<path d="M0 0 C0.66 0 1.32 0 2 0 C1.67 3.63 1.34 7.26 1 11 C0.34 10.67 -0.32 10.34 -1 10 C-0.67 8.35 -0.34 6.7 0 5 C-0.66 5 -1.32 5 -2 5 C-1 2 -1 2 0 0 Z " fill="currentColor" transform="translate(596,446)"/>
<path d="M0 0 C0.99 0.33 1.98 0.66 3 1 C3.33 3.31 3.66 5.62 4 8 C3.34 8 2.68 8 2 8 C0 6 0 6 -0.125 2.875 C-0.08375 1.92625 -0.0425 0.9775 0 0 Z " fill="currentColor" transform="translate(191,443)"/>
<path d="M0 0 C1.65 0 3.3 0 5 0 C5 0.99 5 1.98 5 3 C4.01 3 3.02 3 2 3 C2 3.66 2 4.32 2 5 C1.01 5 0.02 5 -1 5 C-0.67 3.35 -0.34 1.7 0 0 Z " fill="currentColor" transform="translate(776,428)"/>
<path d="M0 0 C1.32 0 2.64 0 4 0 C3.125 4.75 3.125 4.75 2 7 C1.34 7 0.68 7 0 7 C0 4.69 0 2.38 0 0 Z " fill="currentColor" transform="translate(250,386)"/>
<path d="M0 0 C0 0.99 0 1.98 0 3 C-2.64 3 -5.28 3 -8 3 C-8 2.34 -8 1.68 -8 1 C-2.25 -1.125 -2.25 -1.125 0 0 Z " fill="currentColor" transform="translate(301,410)"/>
<path d="M0 0 C0.66 0 1.32 0 2 0 C2.33 2.97 2.66 5.94 3 9 C2.01 9 1.02 9 0 9 C0 6.03 0 3.06 0 0 Z " fill="currentColor" transform="translate(637,405)"/>
<path d="M0 0 C0 0.99 0 1.98 0 3 C-1.32 3.33 -2.64 3.66 -4 4 C-4.33 5.32 -4.66 6.64 -5 8 C-5 6.68 -5 5.36 -5 4 C-5.66 3.67 -6.32 3.34 -7 3 C-6.34 3 -5.68 3 -5 3 C-5 2.34 -5 1.68 -5 1 C-2 0 -2 0 0 0 Z " fill="currentColor" transform="translate(355,346)"/>
<path d="M0 0 C0.66 0 1.32 0 2 0 C2 1.65 2 3.3 2 5 C2.99 5 3.98 5 5 5 C5 5.99 5 6.98 5 8 C2.525 7.01 2.525 7.01 0 6 C0 4.02 0 2.04 0 0 Z " fill="currentColor" transform="translate(289,453)"/>
<path d="M0 0 C2.92509086 3.90012114 3.47535095 5.38308839 4 10 C3.01 10 2.02 10 1 10 C0.67 6.7 0.34 3.4 0 0 Z " fill="currentColor" transform="translate(296,438)"/>
<path d="M0 0 C2.64 0 5.28 0 8 0 C8 0.66 8 1.32 8 2 C5.36 2.33 2.72 2.66 0 3 C0 2.01 0 1.02 0 0 Z " fill="currentColor" transform="translate(170,434)"/>
<path d="M0 0 C0 1.32 0 2.64 0 4 C-1.98 4 -3.96 4 -6 4 C-5.67 3.01 -5.34 2.02 -5 1 C-3 0 -3 0 0 0 Z " fill="currentColor" transform="translate(63,419)"/>
<path d="M0 0 C0 0.99 0 1.98 0 3 C-2.64 3 -5.28 3 -8 3 C-8 2.34 -8 1.68 -8 1 C-5.10765685 0.17361624 -3.11257569 0 0 0 Z " fill="currentColor" transform="translate(241,415)"/>
<path d="M0 0 C0.33 0 0.66 0 1 0 C1 1.65 1 3.3 1 5 C-0.32 5.33 -1.64 5.66 -3 6 C-3 6.66 -3 7.32 -3 8 C-3.99 8 -4.98 8 -6 8 C-6 6 -6 6 -4.6875 4.375 C-3 3 -3 3 0 3 C0 2.01 0 1.02 0 0 Z " fill="currentColor" transform="translate(330,406)"/>
<path d="M0 0 C0.33 0 0.66 0 1 0 C1.125 3.375 1.125 3.375 1 7 C0.34 7.66 -0.32 8.32 -1 9 C-1 8.34 -1 7.68 -1 7 C-1.66 7 -2.32 7 -3 7 C-2.38722388 4.03824877 -1.74627478 2.61941217 0 0 Z " fill="currentColor" transform="translate(550,373)"/>
<path d="M0 0 C2.29013653 3.4352048 2.17842973 4.985331 2 9 C1.01 8.67 0.02 8.34 -1 8 C-1.33 6.35 -1.66 4.7 -2 3 C-1.34 3 -0.68 3 0 3 C0 2.01 0 1.02 0 0 Z " fill="currentColor" transform="translate(473,373)"/>
<path d="M0 0 C4.51720311 -0.36625971 4.51720311 -0.36625971 6.8125 1.375 C8 3 8 3 8 5 C7.01 5 6.02 5 5 5 C5 4.34 5 3.68 5 3 C3.35 2.67 1.7 2.34 0 2 C0 1.34 0 0.68 0 0 Z " fill="currentColor" transform="translate(458,362)"/>
<path d="M0 0 C0.99 0.33 1.98 0.66 3 1 C3 2.98 3 4.96 3 7 C2.01 7 1.02 7 0 7 C0 4.69 0 2.38 0 0 Z " fill="currentColor" transform="translate(611,492)"/>
<path d="M0 0 C2.475 0.495 2.475 0.495 5 1 C5 1.66 5 2.32 5 3 C5.99 3 6.98 3 8 3 C8 3.66 8 4.32 8 5 C6.68 5 5.36 5 4 5 C4 4.34 4 3.68 4 3 C2.68 2.67 1.36 2.34 0 2 C0 1.34 0 0.68 0 0 Z " fill="currentColor" transform="translate(462,457)"/>
<path d="M0 0 C0.66 0 1.32 0 2 0 C1.75 2.375 1.75 2.375 1 5 C-0.875 6.375 -0.875 6.375 -3 7 C-3.99 6.67 -4.98 6.34 -6 6 C-4.68 5.67 -3.36 5.34 -2 5 C-2 4.34 -2 3.68 -2 3 C-1.34 3 -0.68 3 0 3 C0 2.01 0 1.02 0 0 Z " fill="currentColor" transform="translate(510,452)"/>
<path d="M0 0 C1.98 0 3.96 0 6 0 C6.33 0.99 6.66 1.98 7 3 C4.69 3 2.38 3 0 3 C0 2.01 0 1.02 0 0 Z " fill="currentColor" transform="translate(565,434)"/>
<path d="M0 0 C1.65 0 3.3 0 5 0 C5.33 1.65 5.66 3.3 6 5 C5.34 5 4.68 5 4 5 C3.67 4.34 3.34 3.68 3 3 C2.01 3 1.02 3 0 3 C0 2.01 0 1.02 0 0 Z " fill="currentColor" transform="translate(211,414)"/>
<path d="M0 0 C0.66 0 1.32 0 2 0 C2 0.66 2 1.32 2 2 C2.66 2 3.32 2 4 2 C4 3.65 4 5.3 4 7 C3.01 7 2.02 7 1 7 C0.67 4.69 0.34 2.38 0 0 Z " fill="currentColor" transform="translate(281,365)"/>
<path d="M0 0 C0.66 0 1.32 0 2 0 C3.10844919 3.32534757 2.84454356 5.62182575 2 9 C1.34 9 0.68 9 0 9 C0 6.03 0 3.06 0 0 Z " fill="currentColor" transform="translate(359,364)"/>
<path d="M0 0 C0.99 0.33 1.98 0.66 3 1 C2.67 2.32 2.34 3.64 2 5 C0.35 5.33 -1.3 5.66 -3 6 C-3 5.01 -3 4.02 -3 3 C-2.01 3 -1.02 3 0 3 C0 2.01 0 1.02 0 0 Z " fill="currentColor" transform="translate(315,465)"/>
<path d="M0 0 C2.64 0 5.28 0 8 0 C8 0.66 8 1.32 8 2 C5.36 2.33 2.72 2.66 0 3 C0 2.01 0 1.02 0 0 Z " fill="currentColor" transform="translate(603,416)"/>
<path d="M0 0 C0.33 0 0.66 0 1 0 C1.36256858 1.4562672 1.71479793 2.91511185 2.0625 4.375 C2.35833984 5.59316406 2.35833984 5.59316406 2.66015625 6.8359375 C3 9 3 9 2 11 C1.34 11 0.68 11 0 11 C0 7.37 0 3.74 0 0 Z " fill="currentColor" transform="translate(286,390)"/>
<path d="M0 0 C0.66 1.65 1.32 3.3 2 5 C0.68 5.33 -0.64 5.66 -2 6 C-2 4.68 -2 3.36 -2 2 C-2.66 1.67 -3.32 1.34 -4 1 C-2 0 -2 0 0 0 Z " fill="currentColor" transform="translate(481,365)"/>
<path d="M0 0 C1.65 0 3.3 0 5 0 C5 0.66 5 1.32 5 2 C0.61538462 5 0.61538462 5 -2 5 C-2 4.34 -2 3.68 -2 3 C-1.34 3 -0.68 3 0 3 C0 2.01 0 1.02 0 0 Z " fill="currentColor" transform="translate(496,473)"/>
<path d="M0 0 C0.99 0.33 1.98 0.66 3 1 C3 2.98 3 4.96 3 7 C2.34 7 1.68 7 1 7 C0.34 5.02 -0.32 3.04 -1 1 C-0.67 0.67 -0.34 0.34 0 0 Z " fill="currentColor" transform="translate(608,467)"/>
<path d="M0 0 C0.66 0.33 1.32 0.66 2 1 C1.25 2.9375 1.25 2.9375 0 5 C-2.125 5.75 -2.125 5.75 -4 6 C-4 4.68 -4 3.36 -4 2 C-2.68 2 -1.36 2 0 2 C0 1.34 0 0.68 0 0 Z " fill="currentColor" transform="translate(508,468)"/>
<path d="M0 0 C0.66 0 1.32 0 2 0 C2.66 1.65 3.32 3.3 4 5 C2.02 5.99 2.02 5.99 0 7 C0 4.69 0 2.38 0 0 Z " fill="currentColor" transform="translate(577,456)"/>
<path d="M0 0 C0.66 0 1.32 0 2 0 C1.67 1.65 1.34 3.3 1 5 C-0.32 5.33 -1.64 5.66 -3 6 C-3 5.01 -3 4.02 -3 3 C-2.01 3 -1.02 3 0 3 C0 2.01 0 1.02 0 0 Z " fill="currentColor" transform="translate(202,446)"/>
<path d="M0 0 C0.66 0 1.32 0 2 0 C2 1.65 2 3.3 2 5 C0.68 5.33 -0.64 5.66 -2 6 C-1.49396008 3.83125748 -1.00016187 2.00032373 0 0 Z " fill="currentColor" transform="translate(531,441)"/>
<path d="M0 0 C0.66 0 1.32 0 2 0 C2 2.31 2 4.62 2 7 C1.01 7 0.02 7 -1 7 C-0.67 4.69 -0.34 2.38 0 0 Z " fill="currentColor" transform="translate(621,432)"/>
<path d="M0 0 C0.33 0.99 0.66 1.98 1 3 C0 4 0 4 -2.5625 4.0625 C-3.7690625 4.0315625 -3.7690625 4.0315625 -5 4 C-4.67 3.01 -4.34 2.02 -4 1 C-1.9375 0.3125 -1.9375 0.3125 0 0 Z " fill="currentColor" transform="translate(521,429)"/>
<path d="M0 0 C0 1.32 0 2.64 0 4 C-1.65 4.66 -3.3 5.32 -5 6 C-5 3 -5 3 -3.625 1.3125 C-2 0 -2 0 0 0 Z " fill="currentColor" transform="translate(263,392)"/>
<path d="M0 0 C0.66 0 1.32 0 2 0 C2.33 2.31 2.66 4.62 3 7 C2.01 7.33 1.02 7.66 0 8 C0 5.36 0 2.72 0 0 Z " fill="currentColor" transform="translate(575,393)"/>
<path d="M0 0 C0.99 0 1.98 0 3 0 C3 0.99 3 1.98 3 3 C1.68 3 0.36 3 -1 3 C-1 3.99 -1 4.98 -1 6 C-1.66 6 -2.32 6 -3 6 C-2.67 4.68 -2.34 3.36 -2 2 C-1.34 2 -0.68 2 0 2 C0 1.34 0 0.68 0 0 Z " fill="currentColor" transform="translate(271,370)"/>
<path d="M0 0 C1 4 1 4 1 4 Z " fill="currentColor" transform="translate(594,443)"/>
<path d="M0 0 C1 4 1 4 1 4 Z " fill="currentColor" transform="translate(618,425)"/>
<path d="M0 0 C0.66 0 1.32 0 2 0 C2 0.66 2 1.32 2 2 C1.34 2 0.68 2 0 2 C0 1.34 0 0.68 0 0 Z " fill="currentColor" transform="translate(363,345)"/>
<path d="M0 0 C0.66 0 1.32 0 2 0 C1.67 0.66 1.34 1.32 1 2 C0.67 1.34 0.34 0.68 0 0 Z " fill="currentColor" transform="translate(648,470)"/>
<path d="M0 0 C3 1 3 1 3 1 Z " fill="currentColor" transform="translate(33,457)"/>
<path d="" fill="currentColor" transform="translate(0,0)"/>
<path d="M0 0 C0.99 0.495 0.99 0.495 2 1 C1.01 1.495 1.01 1.495 0 2 C0 1.34 0 0.68 0 0 Z " fill="currentColor" transform="translate(231,414)"/>
<path d="M0 0 C0.66 0 1.32 0 2 0 C1.67 0.66 1.34 1.32 1 2 C0.67 1.34 0.34 0.68 0 0 Z " fill="currentColor" transform="translate(331,411)"/>
<path d="M0 0 C0.66 0 1.32 0 2 0 C1.67 0.66 1.34 1.32 1 2 C0.67 1.34 0.34 0.68 0 0 Z " fill="currentColor" transform="translate(476,355)"/>
<path d="M0 0 C0.66 0.66 1.32 1.32 2 2 C1.34 2 0.68 2 0 2 C0 1.34 0 0.68 0 0 Z " fill="currentColor" transform="translate(572,345)"/>
<path d="" fill="currentColor" transform="translate(0,0)"/>
<path d="" fill="currentColor" transform="translate(0,0)"/>
<path d="M0 0 C2 1 2 1 2 1 Z " fill="currentColor" transform="translate(580,470)"/>
<path d="M0 0 C2 1 2 1 2 1 Z " fill="currentColor" transform="translate(518,470)"/>
<path d="" fill="currentColor" transform="translate(0,0)"/>
<path d="" fill="currentColor" transform="translate(0,0)"/>
<path d="" fill="currentColor" transform="translate(0,0)"/>
<path d="M0 0 C2 1 2 1 2 1 Z " fill="currentColor" transform="translate(779,422)"/>
<path d="" fill="currentColor" transform="translate(0,0)"/>
<path d="" fill="currentColor" transform="translate(0,0)"/>
<path d="M0 0 C2 1 2 1 2 1 Z " fill="currentColor" transform="translate(624,390)"/>
<path d="" fill="currentColor" transform="translate(0,0)"/>
<path d="" fill="currentColor" transform="translate(0,0)"/>
<path d="" fill="currentColor" transform="translate(0,0)"/>
<path d="" fill="currentColor" transform="translate(0,0)"/>
<path d="" fill="currentColor" transform="translate(0,0)"/>
<path d="" fill="currentColor" transform="translate(0,0)"/>
<path d="" fill="currentColor" transform="translate(0,0)"/>
<path d="" fill="currentColor" transform="translate(0,0)"/>
<path d="" fill="currentColor" transform="translate(0,0)"/>
<path d="" fill="currentColor" transform="translate(0,0)"/>
<path d="" fill="currentColor" transform="translate(0,0)"/>
<path d="" fill="currentColor" transform="translate(0,0)"/>
<path d="" fill="currentColor" transform="translate(0,0)"/>
<path d="" fill="currentColor" transform="translate(0,0)"/>
<path d="" fill="currentColor" transform="translate(0,0)"/>
<path d="" fill="currentColor" transform="translate(0,0)"/>
<path d="" fill="currentColor" transform="translate(0,0)"/>
<path d="" fill="currentColor" transform="translate(0,0)"/>
<path d="" fill="currentColor" transform="translate(0,0)"/>
<path d="" fill="currentColor" transform="translate(0,0)"/>
<path d="" fill="currentColor" transform="translate(0,0)"/>
<path d="" fill="currentColor" transform="translate(0,0)"/>
<path d="" fill="currentColor" transform="translate(0,0)"/>
<path d="" fill="currentColor" transform="translate(0,0)"/>
<path d="" fill="currentColor" transform="translate(0,0)"/>
<path d="" fill="currentColor" transform="translate(0,0)"/>
<path d="" fill="currentColor" transform="translate(0,0)"/>
<path d="" fill="currentColor" transform="translate(0,0)"/>
<path d="" fill="currentColor" transform="translate(0,0)"/>
<path d="" fill="currentColor" transform="translate(0,0)"/>
<path d="" fill="currentColor" transform="translate(0,0)"/>
<path d="" fill="currentColor" transform="translate(0,0)"/>
<path d="" fill="currentColor" transform="translate(0,0)"/>
<path d="" fill="currentColor" transform="translate(0,0)"/>
<path d="" fill="currentColor" transform="translate(0,0)"/>
<path d="" fill="currentColor" transform="translate(0,0)"/>
<path d="" fill="currentColor" transform="translate(0,0)"/>
<path d="" fill="currentColor" transform="translate(0,0)"/>
<path d="" fill="currentColor" transform="translate(0,0)"/>
<path d="" fill="currentColor" transform="translate(0,0)"/>
<path d="" fill="currentColor" transform="translate(0,0)"/>
<path d="" fill="currentColor" transform="translate(0,0)"/>
<path d="" fill="currentColor" transform="translate(0,0)"/>
<path d="" fill="currentColor" transform="translate(0,0)"/>
<path d="" fill="currentColor" transform="translate(0,0)"/>
<path d="" fill="currentColor" transform="translate(0,0)"/>
<path d="" fill="currentColor" transform="translate(0,0)"/>
<path d="" fill="currentColor" transform="translate(0,0)"/>
<path d="" fill="currentColor" transform="translate(0,0)"/>
<path d="" fill="currentColor" transform="translate(0,0)"/>
<path d="" fill="currentColor" transform="translate(0,0)"/>
<path d="" fill="currentColor" transform="translate(0,0)"/>
<path d="" fill="currentColor" transform="translate(0,0)"/>
<path d="" fill="currentColor" transform="translate(0,0)"/>
<path d="" fill="currentColor" transform="translate(0,0)"/>
<path d="" fill="currentColor" transform="translate(0,0)"/>
<path d="" fill="currentColor" transform="translate(0,0)"/>
<path d="" fill="currentColor" transform="translate(0,0)"/>
<path d="" fill="currentColor" transform="translate(0,0)"/>
<path d="" fill="currentColor" transform="translate(0,0)"/>
<path d="" fill="currentColor" transform="translate(0,0)"/>
<path d="" fill="currentColor" transform="translate(0,0)"/>
<path d="" fill="currentColor" transform="translate(0,0)"/>
<path d="" fill="currentColor" transform="translate(0,0)"/>
<path d="" fill="currentColor" transform="translate(0,0)"/>
<path d="" fill="currentColor" transform="translate(0,0)"/>
</svg>
